<?xml version="1.0" encoding="UTF-8" standalone="no"?><svg width="320" height="288" viewBox="0 0 320 288" xmlns="http://www.w3.org/2000/svg" xmlns:xlink="http://www.w3.org/1999/xlink"><svg width="32" height="32" viewBox="0 0 32 32" id="android" x="288"><title>E8FA47AD-47E1-40BB-ACBD-ECC4EF7E49CD</title><g transform="translate(5 3.523)" fill="#FFF" fill-rule="evenodd"><path d="M1.583 8.42C.71 8.42 0 9.127 0 10.001v6.65a1.583 1.583 0 0 0 3.166 0v-6.65c0-.874-.709-1.583-1.583-1.583M21.795 10.002a1.583 1.583 0 0 0-3.166 0v6.65a1.583 1.583 0 0 0 3.166 0v-6.65zM3.812 8.696h-.078v10.436c0 .871.712 1.584 1.583 1.584H6.65v3.637a1.583 1.583 0 0 0 3.167 0v-3.637h2.16v3.637a1.583 1.583 0 0 0 3.166 0v-3.637h1.335c.87 0 1.583-.713 1.583-1.584V8.696H3.812zM7.639 4.263a.673.673 0 1 1 0 1.346.673.673 0 0 1 0-1.346zm6.518 0a.673.673 0 1 1 0 1.345.673.673 0 0 1 0-1.345zm3.892 3.879v-.764a5.738 5.738 0 0 0-.098-.64c-.392-1.856-1.687-3.429-3.464-4.342L15.58.38a.257.257 0 0 0-.452-.245L14.02 2.177a7.869 7.869 0 0 0-3.11-.631c-1.123 0-2.185.23-3.131.64L6.668.135a.257.257 0 1 0-.452.245l1.098 2.027c-1.693.877-2.946 2.355-3.39 4.105a5.729 5.729 0 0 0-.172 1.63h14.297z"/></g></svg><svg width="134" height="36" viewBox="0 0 134 36" id="app-store" x="144" y="180"><title>19C978AA-9402-4D5B-A7BB-E9375EEC5B95</title><g transform="translate(13 5.493)" fill="none" fill-rule="evenodd"><g transform="translate(.273 .168)" fill="#192540"><path d="M16.614 12.65c-.028-3.005 2.529-4.467 2.645-4.535-1.448-2.054-3.692-2.335-4.48-2.357-1.886-.193-3.714 1.097-4.674 1.097-.98 0-2.458-1.079-4.052-1.047-2.051.03-3.97 1.186-5.022 2.98-2.171 3.658-.552 9.033 1.529 11.99 1.04 1.448 2.257 3.065 3.848 3.008 1.558-.062 2.14-.966 4.019-.966 1.862 0 2.408.966 4.031.93 1.672-.026 2.724-1.455 3.728-2.916 1.203-1.66 1.686-3.294 1.705-3.378-.04-.013-3.246-1.204-3.277-4.806M13.547 3.813c.837-1.02 1.41-2.406 1.251-3.813-1.212.052-2.728.816-3.6 1.813-.773.878-1.463 2.318-1.285 3.671 1.362.1 2.76-.668 3.634-1.671"/></g><g transform="translate(29.023 7.861)"><path d="M7.631 7.447l-1.078-3.24c-.114-.331-.328-1.11-.643-2.338h-.038a88.215 88.215 0 0 1-.606 2.338l-1.059 3.24h3.424zm3.728 5.174H9.183L7.99 8.976H3.847L2.71 12.621H.592L4.698.212h2.535l4.126 12.409zM19.835 8.11c0-.871-.2-1.589-.605-2.154-.442-.59-1.035-.884-1.779-.884a2.16 2.16 0 0 0-1.371.488c-.41.326-.679.752-.804 1.28a2.537 2.537 0 0 0-.095.606v1.492c0 .65.205 1.2.615 1.648.41.449.943.673 1.599.673.77 0 1.368-.29 1.796-.866.43-.577.644-1.338.644-2.283m2.082-.073c0 1.522-.423 2.725-1.268 3.608-.757.786-1.697 1.178-2.82 1.178-1.21 0-2.08-.423-2.61-1.27h-.04v4.714h-2.042V6.619c0-.957-.026-1.939-.076-2.946h1.797l.114 1.419h.038c.682-1.069 1.716-1.602 3.103-1.602 1.085 0 1.99.417 2.715 1.251.727.836 1.089 1.934 1.089 3.296M30.412 8.11c0-.871-.202-1.589-.606-2.154-.442-.59-1.033-.884-1.778-.884-.505 0-.962.164-1.372.488-.41.326-.678.752-.803 1.28a2.587 2.587 0 0 0-.095.606v1.492c0 .65.205 1.2.613 1.648.41.448.943.673 1.6.673.77 0 1.369-.29 1.797-.866.43-.577.644-1.338.644-2.283m2.082-.073c0 1.522-.423 2.725-1.269 3.608-.756.786-1.696 1.178-2.818 1.178-1.212 0-2.082-.423-2.61-1.27h-.04v4.714h-2.042V6.619c0-.957-.026-1.939-.076-2.946h1.797l.114 1.419h.038c.68-1.069 1.715-1.602 3.103-1.602 1.084 0 1.99.417 2.716 1.251.724.836 1.087 1.934 1.087 3.296M44.32 9.141c0 1.056-.377 1.914-1.133 2.577-.831.725-1.988 1.087-3.474 1.087-1.372 0-2.473-.258-3.305-.773l.473-1.657a5.719 5.719 0 0 0 2.954.792c.77 0 1.368-.17 1.798-.507.429-.337.642-.79.642-1.356 0-.503-.176-.927-.53-1.271-.351-.345-.939-.664-1.759-.96-2.233-.81-3.348-1.997-3.348-3.558 0-1.02.39-1.857 1.174-2.507.78-.652 1.82-.978 3.122-.978 1.16 0 2.124.197 2.894.59l-.51 1.62c-.72-.38-1.532-.57-2.442-.57-.718 0-1.28.172-1.683.515-.34.307-.51.681-.51 1.124 0 .49.194.896.585 1.215.34.294.959.613 1.856.957 1.097.43 1.903.933 2.421 1.51.517.573.775 1.292.775 2.15M51.075 5.165h-2.252V9.51c0 1.105.396 1.657 1.192 1.657.365 0 .668-.03.907-.092l.057 1.51c-.403.146-.933.22-1.589.22-.807 0-1.437-.24-1.893-.718-.453-.48-.681-1.283-.681-2.412v-4.51h-1.342V3.671h1.342V2.033l2.007-.589v2.228h2.252v1.493M59.116 8.138c0-.825-.181-1.533-.548-2.123-.429-.714-1.04-1.07-1.834-1.07-.822 0-1.446.356-1.874 1.07-.367.59-.548 1.31-.548 2.16 0 .825.181 1.533.548 2.122.442.715 1.059 1.07 1.855 1.07.78 0 1.393-.363 1.835-1.088.376-.602.566-1.317.566-2.141m2.12-.064c0 1.375-.405 2.504-1.212 3.387-.846.91-1.969 1.362-3.369 1.362-1.35 0-2.424-.435-3.225-1.306-.8-.87-1.201-1.97-1.201-3.295 0-1.387.412-2.522 1.239-3.405.825-.884 1.938-1.326 3.338-1.326 1.35 0 2.436.435 3.255 1.307.784.846 1.175 1.938 1.175 3.276M67.877 5.422a3.644 3.644 0 0 0-.644-.055c-.719 0-1.275.264-1.666.792-.34.466-.51 1.056-.51 1.767v4.695h-2.043l.02-6.13c0-1.031-.026-1.97-.077-2.817h1.78l.074 1.712h.057a3.062 3.062 0 0 1 1.021-1.417c.456-.32.947-.48 1.477-.48.189 0 .36.014.51.037v1.896" fill="#192540"/><path d="M75.066 7.208c.014-.589-.12-1.098-.396-1.528-.354-.553-.897-.829-1.629-.829-.668 0-1.211.27-1.626.81-.34.43-.542.946-.605 1.546h4.256v.001zm1.949.516c0 .356-.024.656-.075.902h-6.13c.024.883.32 1.56.89 2.026.516.416 1.184.625 2.004.625.908 0 1.736-.14 2.48-.423l.32 1.38c-.87.37-1.897.553-3.082.553-1.426 0-2.546-.408-3.36-1.224-.813-.816-1.22-1.912-1.22-3.286 0-1.35.379-2.473 1.137-3.369.793-.957 1.865-1.435 3.215-1.435 1.325 0 2.328.478 3.01 1.435.54.76.81 1.7.81 2.816z" fill="#474747"/></g></g></svg><svg width="144" height="144" viewBox="0 0 144 144" id="bills"><title>5BCA4C83-9854-45F2-A10B-3E7E7145EAF5</title><g transform="translate(12 12)" fill="none" fill-rule="evenodd"><path d="M120 59.848c.377 32.863-25.938 59.383-60 59.847-33.134.451-60-26.794-60-59.847S26.863 0 60 0s59.621 26.796 60 59.847z" stroke="#009DE2" stroke-width="2"/><path d="M77.456 83.838H28.41c-.89 0-1.61-.72-1.61-1.61V33.18c0-.89.72-1.61 1.61-1.61h49.047c.89 0 1.611.72 1.611 1.61v49.047c0 .89-.72 1.611-1.61 1.611z" stroke="#009DE2" stroke-width="2"/><g transform="translate(26.577 43.996)"><path d="M.498.452h51.716" fill="#FFF"/><path d="M.498.452h51.716" stroke="#009DE2" stroke-width="2"/></g><g transform="translate(26.577 64.13)"><path d="M.498.013h51.716" fill="#FFF"/><path d="M.498.013h51.716" stroke="#009DE2" stroke-width="2"/></g><g transform="translate(26.577 53.66)"><path d="M.498.635h51.716" fill="#FFF"/><path d="M.498.635h51.716" stroke="#009DE2" stroke-width="2"/></g><g transform="translate(39.463 43.996)"><path d="M.334.147v39.695" fill="#FFF"/><path d="M.334.147v39.695" stroke="#009DE2" stroke-width="2"/></g><g transform="translate(52.349 43.996)"><path d="M.446.147v39.695" fill="#FFF"/><path d="M.446.147v39.695" stroke="#009DE2" stroke-width="2"/></g><g transform="translate(65.235 43.996)"><path d="M.558.147v39.695" fill="#FFF"/><path d="M.558.147v39.695" stroke="#009DE2" stroke-width="2"/></g><g transform="translate(26.577 73.794)"><path d="M.498.196h51.716" fill="#FFF"/><path d="M.498.196h51.716" stroke="#009DE2" stroke-width="2"/></g><path d="M105.025 77.495L52.82 93.439a2.416 2.416 0 0 1-3.016-1.605l-6.655-21.788a2.416 2.416 0 0 1 1.605-3.017L96.96 51.085a2.416 2.416 0 0 1 3.016 1.605l6.654 21.788a2.416 2.416 0 0 1-1.605 3.017" fill="#7FCDFF"/><path d="M106.566 77.024L51.279 93.91a.805.805 0 0 1-1.005-.534l-7.596-24.87a.805.805 0 0 1 .535-1.005L98.5 50.614a.804.804 0 0 1 1.005.535l7.596 24.87a.804.804 0 0 1-.535 1.005" fill="#FFF"/><path d="M106.566 77.024L51.279 93.91a.805.805 0 0 1-1.005-.534l-7.596-24.87a.805.805 0 0 1 .535-1.005L98.5 50.614a.804.804 0 0 1 1.005.535l7.596 24.87a.804.804 0 0 1-.535 1.005z" stroke="#009DE2" stroke-width="2"/><path d="M78.07 81.266a9.54 9.54 0 0 1-11.911-6.338c-1.54-5.04 1.298-10.372 6.337-11.911 5.04-1.54 10.373 1.298 11.912 6.338 1.54 5.04-1.299 10.372-6.338 11.911" fill="#FFF"/><path d="M78.07 81.266a9.54 9.54 0 0 1-11.911-6.338c-1.54-5.04 1.298-10.372 6.337-11.911 5.04-1.54 10.373 1.298 11.912 6.338 1.54 5.04-1.299 10.372-6.338 11.911z" stroke="#009DE2" stroke-width="2"/><path d="M76.475 75.001c.783-.3 1.233-.848.961-1.737-.254-.832-1.02-.877-1.751-.849l.79 2.586zm-2.402-6.158c-.8.245-1.163.683-.922 1.47.216.712.934.797 1.6.75l-.678-2.22zm.015 5.14c.287.98.878 1.443 1.91 1.164l-.82-2.685c-1.308.048-2.771-.052-3.267-1.672-.43-1.41.524-2.54 1.856-2.945l-.264-.867.477-.145.264.865c1.332-.407 2.645-.043 3.093 1.423l-1.266.386c-.264-.744-.722-1.052-1.522-.809l.716 2.341c1.451-.053 2.895.064 3.383 1.661.505 1.654-.42 2.8-1.868 3.3l.265.867-.478.146-.264-.866c-1.61.455-3.01-.123-3.48-1.777l1.265-.387z" stroke="#009EE3" stroke-width=".5" fill="#009DE2"/><path d="M73.777 66.945l3.064 9.967" stroke="#009DE2" stroke-width="1.5" stroke-linecap="round"/></g></svg><svg width="144" height="144" viewBox="0 0 144 144" id="calculator" x="144"><title>CFE17B9D-D711-457F-9A70-6F86BC1B09B4</title><defs><path id="da" d="M0 120.55h120.851V0H0z"/></defs><g transform="translate(12 12)" fill="none" fill-rule="evenodd"><path d="M119.847 60.272c.373 32.548-25.688 58.813-59.423 59.272C27.608 119.991 1 93.007 1 60.272S27.605 1 60.424 1c32.818 0 59.048 26.54 59.423 59.272z" stroke="#009DE2" stroke-width="2"/><path d="M81.707 92.795H39.144a2 2 0 0 1-2-2v-61.04a2 2 0 0 1 2-2h42.563a2 2 0 0 1 2 2v61.04a2 2 0 0 1-2 2z" stroke="#009DE2" stroke-width="2"/><path d="M53.501 60.397a3.58 3.58 0 1 1-7.16 0 3.58 3.58 0 0 1 7.16 0" fill="#FFF"/><path d="M53.501 60.397a3.58 3.58 0 1 1-7.16 0 3.58 3.58 0 0 1 7.16 0z" stroke="#009DE2" stroke-width="2"/><path d="M64.006 60.397a3.58 3.58 0 1 1-7.16 0 3.58 3.58 0 0 1 7.16 0" fill="#FFF"/><path d="M64.006 60.397a3.58 3.58 0 1 1-7.16 0 3.58 3.58 0 0 1 7.16 0z" stroke="#009DE2" stroke-width="2"/><path d="M74.51 60.397a3.58 3.58 0 1 1-7.16 0 3.58 3.58 0 0 1 7.16 0" fill="#FFF"/><path d="M74.51 60.397a3.58 3.58 0 1 1-7.16 0 3.58 3.58 0 0 1 7.16 0z" stroke="#009DE2" stroke-width="2"/><path d="M53.501 70.901a3.58 3.58 0 1 1-7.16 0 3.58 3.58 0 0 1 7.16 0" fill="#FFF"/><path d="M53.501 70.901a3.58 3.58 0 1 1-7.16 0 3.58 3.58 0 0 1 7.16 0z" stroke="#009DE2" stroke-width="2"/><path d="M64.006 70.901a3.58 3.58 0 1 1-7.16 0 3.58 3.58 0 0 1 7.16 0" fill="#FFF"/><path d="M64.006 70.901a3.58 3.58 0 1 1-7.16 0 3.58 3.58 0 0 1 7.16 0z" stroke="#009DE2" stroke-width="2"/><path d="M74.51 70.901a3.58 3.58 0 1 1-7.16 0 3.58 3.58 0 0 1 7.16 0" fill="#FFF"/><path d="M74.51 70.901a3.58 3.58 0 1 1-7.16 0 3.58 3.58 0 0 1 7.16 0z" stroke="#009DE2" stroke-width="2"/><path d="M53.501 81.406a3.58 3.58 0 1 1-7.16 0 3.58 3.58 0 0 1 7.16 0" fill="#FFF"/><path d="M53.501 81.406a3.58 3.58 0 1 1-7.16 0 3.58 3.58 0 0 1 7.16 0z" stroke="#009DE2" stroke-width="2"/><path d="M64.006 81.406a3.58 3.58 0 1 1-7.16 0 3.58 3.58 0 0 1 7.16 0" fill="#FFF"/><path d="M64.006 81.406a3.58 3.58 0 1 1-7.16 0 3.58 3.58 0 0 1 7.16 0z" stroke="#009DE2" stroke-width="2"/><path d="M74.51 81.406a3.58 3.58 0 1 1-7.16 0 3.58 3.58 0 0 1 7.16 0" fill="#FFF"/><path d="M74.51 81.406a3.58 3.58 0 1 1-7.16 0 3.58 3.58 0 0 1 7.16 0z" stroke="#009DE2" stroke-width="2"/><g transform="translate(37 39.55)"><path d="M.144.92h46.563" fill="#FFF"/><path d="M.144.92h46.563" stroke="#009DE2" stroke-width="2"/></g><mask id="db" fill="#fff"><use xlink:href="#da"/></mask><path fill="#FFF" mask="url(#db)" d="M44.871 51.878h31.108v-6.029H44.871z"/><path stroke="#009DE2" stroke-width="2" mask="url(#db)" d="M44.871 51.878h31.108v-6.029H44.871z"/></g></svg><svg width="134" height="36" viewBox="0 0 134 36" id="google-play" x="144" y="144"><title>2070C315-9C94-40A2-918C-7D3D663C8DEB</title><defs><linearGradient x1="29.644%" y1="-5.979%" x2="55.203%" y2="92.813%" id="ea"><stop stop-color="#0F6E8A" offset="0%"/><stop stop-color="#7DF0E3" offset="100%"/></linearGradient><linearGradient x1="-7.729%" y1="16.057%" x2="91.657%" y2="86.519%" id="eb"><stop stop-color="#30C4BD" offset="0%"/><stop stop-color="#DBFF99" offset="100%"/></linearGradient><linearGradient x1="50%" y1="105.137%" x2="50%" y2="-4.567%" id="ec"><stop stop-color="#FFC478" offset="0%"/><stop stop-color="#FF8F61" offset="100%"/></linearGradient><linearGradient x1="10.889%" y1="117.566%" x2="90.471%" y2="11.536%" id="ed"><stop stop-color="#78339C" offset="0%"/><stop stop-color="#EB2E38" offset="100%"/></linearGradient></defs><g transform="translate(6 6)" fill="none" fill-rule="evenodd"><path d="M66.592 22.327c-.543-.475-1.005-1.212-1.276-1.727l1.853-.78c.12.223.29.57.566.864.475.51 1.112.86 1.882.86.72 0 1.533-.326 1.96-.914.381-.525.53-1.194.53-1.912v-.717c-1.322 1.685-4.214 1.45-5.831-.293-1.729-1.862-1.713-4.885.035-6.748 1.726-1.693 4.286-1.907 5.793-.303l.003.003v-.81h2.007v8.641c0 2.2-.815 3.442-1.827 4.165-.74.53-1.778.773-2.693.773-1.189 0-2.208-.406-3.002-1.102zm48.1.477l1.938-4.547-3.43-7.884h1.953l2.445 5.615 2.391-5.615h1.954l-5.296 12.43h-1.954zm-9.275-4.343c-.551-.526-.852-1.352-.86-2.11a2.646 2.646 0 0 1 .71-1.856c.787-.834 1.97-1.19 3.212-1.19.812 0 1.53.161 2.073.47 0-1.39-1.097-1.92-2.026-1.92-.859 0-1.615.449-1.906 1.225l-1.754-.704c.312-.84 1.295-2.275 3.617-2.275 1.132 0 2.255.397 2.987 1.167.731.77.976 1.731.976 3.007v4.774h-1.915v-.853a3.253 3.253 0 0 1-1.048.824c-.492.24-1.07.321-1.603.321-.874 0-1.834-.28-2.463-.88zm-61.23-4.104c0-2.276 1.747-4.784 4.78-4.784 3.034 0 4.782 2.506 4.782 4.782 0 2.275-1.748 4.783-4.781 4.783-3.034 0-4.781-2.506-4.781-4.781zm10.377 0c0-2.276 1.747-4.784 4.78-4.784 3.034 0 4.782 2.506 4.782 4.782 0 2.275-1.748 4.783-4.781 4.783-3.034 0-4.78-2.506-4.78-4.781zM31.236 16.87c-2.892-2.888-2.807-7.529.087-10.417a7.418 7.418 0 0 1 5.279-2.166 7.506 7.506 0 0 1 5.08 2.01L40.25 7.78a5.255 5.255 0 0 0-7.404.1c-2.053 2.108-2.1 5.494-.049 7.603 2.069 2.108 5.497 2.231 7.565.123.699-.712.936-1.622 1.078-2.552h-4.85v-2.031h6.814c.097.507.112 1.03.112 1.547 0 1.671-.73 3.442-1.856 4.586-1.29 1.308-3.089 1.985-4.99 1.969a7.827 7.827 0 0 1-5.434-2.254zm48.538.852c-1.703-1.862-1.703-4.914 0-6.776 1.704-1.862 4.612-1.852 6.263-.011.543.604.907 1.386 1.228 2.197l-6.374 2.66c.372.743 1.105 1.456 2.266 1.456.994 0 1.67-.33 2.382-1.33l1.667 1.11c-.191.251-.428.5-.606.694-1.702 1.863-5.122 1.863-6.826 0zm11.975 1.336V6.47h4.089c2.464 0 4.324 1.708 4.324 3.812s-1.768 3.812-3.946 3.812h-2.529v4.964H91.75zm9.681 0V6.468h1.938v12.59h-1.938zm-25.952-.205V4.765H77.6v14.088h-2.122zm35.061-3.487c-.475-.32-1.198-.461-1.827-.461-1.379 0-2.157.69-2.157 1.445 0 .843.814 1.26 1.575 1.26 1.106 0 2.41-.913 2.41-2.244zm-58.903-1.01c0-1.373-.975-2.885-2.668-2.885S46.3 12.984 46.3 14.356c0 1.373.975 2.885 2.668 2.885s2.668-1.514 2.668-2.886zm10.377 0c0-1.373-.975-2.885-2.668-2.885-1.694 0-2.668 1.513-2.668 2.885 0 1.373.974 2.885 2.668 2.885 1.693 0 2.668-1.514 2.668-2.886zm10.142.868a2.617 2.617 0 0 0 .081-.386 2.972 2.972 0 0 0-.001-.982 2.516 2.516 0 0 0-.117-.485c-.362-1.113-1.325-1.905-2.45-1.896-1.43.011-2.583 1.31-2.572 2.899.01 1.588 1.18 2.868 2.608 2.857 1.127-.01 2.08-.817 2.45-2.007zm8.408-1.038l4.255-1.787c-.442-.753-1.153-.987-1.762-.987-1.619 0-2.729 1.824-2.493 2.774zm17.621-3.86c0-1.1-.871-1.991-2.167-1.991h-2.33v3.983h2.44c1.145 0 2.057-.892 2.057-1.992z" fill="#757575"/><path d="M.002 12.38V1.196C.002.59.536.015 1.112.015c.512 0 .764.152 1.02.282l20.7 11.21c.444.24.665.557.664.872.001.317-.22.632-.664.872l-20.7 11.211c-.256.13-.508.282-1.02.282-.576 0-1.11-.574-1.11-1.18V12.378z" fill="url(#ea)"/><path d="M13.45 12.453L.915.038a.88.88 0 0 1 .196-.023c.512 0 .764.152 1.02.282l15.25 8.26-3.933 3.896z" fill="url(#eb)"/><path d="M17.287 16.255l-3.838-3.802 3.933-3.897 5.45 2.952c.444.24.665.556.664.871.001.317-.22.632-.664.872l-5.545 3.004z" fill="url(#ec)"/><path d="M1.044 24.741l.012-.011 12.393-12.277 3.838 3.802-15.156 8.207c-.255.13-.507.282-1.02.282l-.067-.003z" fill="url(#ed)"/><g transform="translate(116.15 22.67)" fill="#FFF"><path d="M.06.107V.094C.05.097.044.1.038.1.035.1.028.097.028.091V.057c0-.006.004-.01.01-.01s.012 0 .015.007L.06.042C.053.038.047.032.038.032c-.013 0-.025.01-.025.022v.04c0 .013.012.019.025.019.01 0 .015 0 .022-.006z"/><path d="M.081.111L.06.08C.072.077.075.068.075.058V.052C.075.04.063.033.05.033H.028v.078h.01V.08h.01l.02.031h.013zM.063.058c0 .01-.007.01-.013.01H.038V.046H.05c.006 0 .013 0 .013.006v.006z"/><path d="M.095.099H.06V.077h.028V.064H.06V.046h.028L.091.033H.045v.078H.09z"/><path d="M.122.111L.1.033H.084L.06.111h.016L.08.086H.1l.006.025h.016zM.1.074H.084L.09.055V.05v.006L.1.074z"/><path d="M.125.033h-.05v.013h.019V.11h.012V.046h.016z"/><path d="M.14.099H.104V.077h.028V.064H.105V.046h.031L.14.033H.09v.078h.05z"/><path d="M.159.086v-.03C.159.042.146.032.134.032H.106v.078h.028c.012 0 .025-.01.025-.025zm-.013 0C.146.096.14.1.131.1H.12V.046h.01c.01 0 .015.003.015.01v.03z"/><path d="M.181.09V.082C.181.077.178.071.17.068c.006 0 .01-.007.01-.013V.052C.178.04.168.033.156.033H.132v.078h.025C.169.111.18.105.18.089zM.163.054c0 .006-.003.01-.01.006H.147V.046h.01c.006 0 .006.003.006.006v.003zm.003.031C.166.096.163.1.156.1H.148V.074h.01c.006 0 .009.006.009.01v.002z"/><path d="M.205.033H.19L.177.061v.007S.174.064.174.06L.162.033H.146L.168.08v.031h.016V.08L.205.033z"/><path d="M.245.115H.198V.019H.173v.114h.065z"/><path d="M.272.107V.045C.272.027.25.017.232.017c-.016 0-.038.01-.038.028v.062c0 .019.022.028.038.028.018 0 .04-.01.04-.028zM.25.104C.25.11.244.12.232.12.222.12.216.11.216.104V.048c0-.006.006-.012.016-.012.012 0 .018.006.018.012v.056z"/><path d="M.294.138V.07H.257v.022h.018V.11a.044.044 0 0 1-.018.007C.25.117.24.11.24.104V.048c0-.006.01-.012.019-.012.006 0 .012.003.022.012L.294.033C.284.02.272.017.26.017.24.017.22.027.22.048v.06c0 .018.018.027.037.027.01 0 .018 0 .025-.003l.012.006z"/><path d="M.322.107V.045C.322.027.303.017.285.017c-.019 0-.04.01-.04.028v.062c0 .019.021.028.04.028.018 0 .037-.01.037-.028zM.303.104C.303.11.294.12.285.12.275.12.266.11.266.104V.048c0-.006.006-.012.019-.012.012 0 .018.006.018.012v.056z"/><path d="M.394.133V.02H.376L.338.102.298.02H.282v.114h.019V.078C.3.074.295.062.295.062l.034.071h.019L.376.065.372.078v.055h.022z"/><path d="M.41.133L.376.02H.35L.317.133h.021L.348.1h.028l.012.034H.41zM.373.081H.354L.36.053V.04s0 .007.003.013l.01.028z"/><path d="M.418.11C.424.095.412.08.396.07.39.067.368.06.368.048c0-.006.006-.012.016-.012.006 0 .012.003.022.01L.415.03A.042.042 0 0 0 .384.017C.362.017.35.03.35.048c0 .016.009.025.021.034.01.004.028.01.025.022C.396.114.39.12.381.12.374.12.362.113.356.104L.343.12a.045.045 0 0 0 .038.015A.04.04 0 0 0 .418.11z"/><path d="M.443.019H.365v.015h.028v.1h.022v-.1h.024z"/><path d="M.46.115H.41V.08h.044V.062H.411V.034h.043L.46.02H.39v.114H.46z"/><path d="M.494.133L.46.083C.475.082.48.069.48.057v-.01C.481.026.466.02.447.02H.413v.114h.019V.09H.44l.028.043h.025zM.463.053c0 .015-.01.015-.016.015H.432V.034h.015c.006 0 .016.006.016.013v.006z"/></g></g></svg><svg width="32" height="32" viewBox="0 0 32 32" id="info" x="288" y="32"><title>4CA72718-D9C3-4BEA-A8D4-D07910FC659A</title><g transform="translate(4 4)" fill="none" fill-rule="evenodd"><path d="M12.213 23.691C5.523 23.781.098 18.388.098 11.846.098 5.303 5.522 0 12.213 0c6.692 0 12.04 5.304 12.116 11.846.076 6.504-5.237 11.753-12.116 11.845z" stroke="#009EE3" stroke-width="2"/><g transform="translate(10.825 5.64)"><ellipse fill="#009EE3" cx="1.389" cy="1.574" rx="1.249" ry="1.241"/><path d="M1.389 4.288v7.449" stroke="#009EE3" stroke-width="2"/></g></g></svg><svg width="22" height="26" viewBox="0 0 22 26" id="ios" x="288" y="122"><title>3299F527-79B6-4270-A504-6E0E11987410</title><g transform="translate(.87 .523)" fill="#FFF" fill-rule="evenodd"><path d="M17.359 14.27c-.7-3.52 2.645-5.591 2.645-5.591s-1.307-1.883-3.493-2.368c-2.188-.486-3.286.117-4.38.576-1.094.453-1.637.453-1.637.453-1.586 0-2.737-1.67-5.746-.912C2.673 6.957.49 9.347.096 12.205c-.395 2.86.458 6.503 2.096 9.33 1.644 2.829 3.313 3.895 4.497 3.921 1.19.033 2.375-.848 3.805-1.061 1.424-.213 2.304.518 3.706.912 1.399.395 1.884.028 3.495-1.338 1.611-1.371 3.073-5.292 3.073-5.292s-2.71-.88-3.409-4.407M14.259 4.027C15.812 2.45 15.283 0 15.283 0s-2.175.384-3.638 1.898C10.19 3.42 10.43 5.82 10.43 5.82s2.278-.214 3.829-1.793"/></g></svg><svg width="144" height="144" viewBox="0 0 144 144" id="rent" y="144"><title>1F728881-320F-4732-AB34-86F2A2D621F7</title><g transform="translate(12 12)" fill="none" fill-rule="evenodd"><path d="M47.649 77.42H77.27" stroke="#009DE2" stroke-width="2"/><g transform="translate(0 .502)"><path d="M44.847 76.917a1.31 1.31 0 1 1-2.619 0 1.31 1.31 0 0 1 2.62 0z" stroke="#009DE2" stroke-width="2"/><path d="M119.2 59.746c.374 32.645-25.765 58.987-59.6 59.448C26.687 119.643 0 92.58 0 59.746 0 26.914 26.684.298 59.6.298s59.224 26.618 59.6 59.448z" stroke="#009DE2" stroke-width="2"/><path d="M76.215 42.47c0 9.175-7.438 16.612-16.613 16.612S42.989 51.645 42.989 42.47c0-9.175 7.438-16.612 16.613-16.612s16.613 7.437 16.613 16.612"/><path d="M76.215 42.47c0 9.175-7.438 16.612-16.613 16.612S42.989 51.645 42.989 42.47c0-9.175 7.438-16.612 16.613-16.612s16.613 7.437 16.613 16.612z" stroke="#009DE2" stroke-width="2"/><path d="M59.97 48.091c1.556-.108 2.658-.842 2.658-2.571 0-1.62-1.34-2.117-2.658-2.463v5.034zm-.928-12.273c-1.556 0-2.443.584-2.443 2.119 0 1.382 1.233 1.922 2.443 2.203v-4.322zm-2.766 9.162c-.022 1.9.777 3.046 2.766 3.111v-5.228c-2.355-.628-4.905-1.599-4.905-4.753 0-2.744 2.311-4.236 4.905-4.236v-1.685h.928v1.685c2.593 0 4.732 1.362 4.732 4.213h-2.463c-.065-1.469-.713-2.27-2.269-2.27v4.56c2.615.692 5.122 1.687 5.122 4.797 0 3.22-2.27 4.753-5.122 4.861v1.685h-.928v-1.685c-3.111-.065-5.295-1.857-5.23-5.055h2.464z" fill="#009DE2"/><path d="M59.452 32.86v18.23" stroke="#009DE2" stroke-width="2" stroke-linecap="round"/><path d="M76.056 2.602c-1.121 8.085-8.06 14.309-16.454 14.309-8.397 0-15.339-6.23-16.455-14.319M94.47 108.158V77.79c0-5.302-4.299-9.6-9.6-9.6H34.334a9.6 9.6 0 0 0-9.6 9.6v30.368" stroke="#009DE2" stroke-width="2"/><path stroke="#009DE2" stroke-width="2" d="M30.682 111.939V84.961h57.84v26.799"/></g></g></svg><svg width="32" height="32" viewBox="0 0 32 32" id="shipping" x="288" y="64"><title>8820A3FE-C35C-412C-8929-13A061126F14</title><defs><path id="ic" d="M0 20.83h30.385V0H0z"/><path d="M20.845 20.767a3.353 3.353 0 0 1-2.63-2.63 3.352 3.352 0 0 1 3.94-3.938 3.352 3.352 0 0 1 2.629 2.63 3.352 3.352 0 0 1-3.94 3.938z" id="ia"/><mask id="ie" x="0" y="0" width="6.692" height="6.693" fill="#fff"><use xlink:href="#ia"/></mask><path d="M7.649 20.767a3.353 3.353 0 0 1-2.63-2.63A3.352 3.352 0 0 1 8.96 14.2a3.352 3.352 0 0 1 2.629 2.63 3.352 3.352 0 0 1-3.94 3.938z" id="ib"/><mask id="if" x="0" y="0" width="6.692" height="6.693" fill="#fff"><use xlink:href="#ib"/></mask></defs><g transform="translate(1 6)" fill="none" fill-rule="evenodd"><path stroke="#FFF" stroke-width="2" d="M22.4 4.046l7.085 5.17v8.469h-5.228M6.129 17.685H.899V4.502"/><mask id="id" fill="#fff"><use xlink:href="#ic"/></mask><path stroke="#FFF" stroke-width="2" mask="url(#id)" d="M.9 11.716h21.5V.9H.9z"/><use mask="url(#ie)" xlink:href="#ia" stroke-width="4" stroke="#FFF"/><use mask="url(#if)" xlink:href="#ib" stroke-width="4" stroke="#FFF"/><path d="M19.66 11.716h9.156M19.66 17.685h-8.91z" stroke="#FFF" stroke-width="2" mask="url(#id)"/></g></svg><svg width="120" height="24" viewBox="0 0 120 24" id="star" x="144" y="216"><view viewBox="0 0 24 24"/><svg width="24" height="24" viewBox="0 0 24 24" preserveAspectRatio="none slice"><title>8BDBB8D4-2147-429F-8764-9132970B970F</title><path d="M12.08 16.742l-4.994 2.625.954-5.56L4 9.87l5.583-.811L12.079 4l2.497 5.059 5.582.81-4.04 3.938.954 5.56z" fill="#9FA9BE" fill-rule="evenodd" opacity=".3"/></svg><view viewBox="24 0 24 24"/><svg width="24" height="24" viewBox="0 0 24 24" preserveAspectRatio="none slice" x="24"><title>8BDBB8D4-2147-429F-8764-9132970B970F</title><path d="M12.08 16.742l-4.994 2.625.954-5.56L4 9.87l5.583-.811L12.079 4l2.497 5.059 5.582.81-4.04 3.938.954 5.56z" fill="#9FA9BE" fill-rule="evenodd" opacity=".3"/></svg><view viewBox="48 0 24 24"/><svg width="24" height="24" viewBox="0 0 24 24" preserveAspectRatio="none slice" x="48"><title>8BDBB8D4-2147-429F-8764-9132970B970F</title><path d="M12.08 16.742l-4.994 2.625.954-5.56L4 9.87l5.583-.811L12.079 4l2.497 5.059 5.582.81-4.04 3.938.954 5.56z" fill="#9FA9BE" fill-rule="evenodd" opacity=".3"/></svg><view viewBox="72 0 24 24"/><svg width="24" height="24" viewBox="0 0 24 24" preserveAspectRatio="none slice" x="72"><title>8BDBB8D4-2147-429F-8764-9132970B970F</title><path d="M12.08 16.742l-4.994 2.625.954-5.56L4 9.87l5.583-.811L12.079 4l2.497 5.059 5.582.81-4.04 3.938.954 5.56z" fill="#9FA9BE" fill-rule="evenodd" opacity=".3"/></svg><view viewBox="96 0 24 24"/><svg width="24" height="24" viewBox="0 0 24 24" preserveAspectRatio="none slice" x="96"><title>8BDBB8D4-2147-429F-8764-9132970B970F</title><path d="M12.08 16.742l-4.994 2.625.954-5.56L4 9.87l5.583-.811L12.079 4l2.497 5.059 5.582.81-4.04 3.938.954 5.56z" fill="#9FA9BE" fill-rule="evenodd" opacity=".3"/></svg></svg><svg width="120" height="24" viewBox="0 0 120 24" id="star-yellow" x="144" y="240"><view viewBox="0 0 24 24"/><svg width="24" height="24" viewBox="0 0 24 24" preserveAspectRatio="none slice"><title>1CF57A4F-F6A7-49C9-8416-22DF1134A114</title><path d="M12.08 16.742l-4.994 2.625.954-5.56L4 9.87l5.583-.811L12.079 4l2.497 5.059 5.582.81-4.04 3.938.954 5.56z" fill="#FC0" fill-rule="evenodd"/></svg><view viewBox="24 0 24 24"/><svg width="24" height="24" viewBox="0 0 24 24" preserveAspectRatio="none slice" x="24"><title>1CF57A4F-F6A7-49C9-8416-22DF1134A114</title><path d="M12.08 16.742l-4.994 2.625.954-5.56L4 9.87l5.583-.811L12.079 4l2.497 5.059 5.582.81-4.04 3.938.954 5.56z" fill="#FC0" fill-rule="evenodd"/></svg><view viewBox="48 0 24 24"/><svg width="24" height="24" viewBox="0 0 24 24" preserveAspectRatio="none slice" x="48"><title>1CF57A4F-F6A7-49C9-8416-22DF1134A114</title><path d="M12.08 16.742l-4.994 2.625.954-5.56L4 9.87l5.583-.811L12.079 4l2.497 5.059 5.582.81-4.04 3.938.954 5.56z" fill="#FC0" fill-rule="evenodd"/></svg><view viewBox="72 0 24 24"/><svg width="24" height="24" viewBox="0 0 24 24" preserveAspectRatio="none slice" x="72"><title>1CF57A4F-F6A7-49C9-8416-22DF1134A114</title><path d="M12.08 16.742l-4.994 2.625.954-5.56L4 9.87l5.583-.811L12.079 4l2.497 5.059 5.582.81-4.04 3.938.954 5.56z" fill="#FC0" fill-rule="evenodd"/></svg><view viewBox="96 0 24 24"/><svg width="24" height="24" viewBox="0 0 24 24" preserveAspectRatio="none slice" x="96"><title>1CF57A4F-F6A7-49C9-8416-22DF1134A114</title><path d="M12.08 16.742l-4.994 2.625.954-5.56L4 9.87l5.583-.811L12.079 4l2.497 5.059 5.582.81-4.04 3.938.954 5.56z" fill="#FC0" fill-rule="evenodd"/></svg></svg><svg width="23" height="26" viewBox="0 0 23 26" id="warranty" x="288" y="96"><title>2CF300AC-9FB7-4712-A190-F2484061534F</title><g transform="translate(1.587 1.265)" fill="none" fill-rule="evenodd"><path stroke="#FFF" stroke-width="2" d="M10.551 15.992l3.437 6.278 1.904-2.914 3.47-.05-3.35-6.12M9.53 15.855l-3.513 6.414-1.903-2.912-3.47-.053 3.405-5.91"/><path d="M18.135 8.139c.052 4.47-3.515 8.076-8.132 8.139-4.491.062-8.133-3.644-8.133-8.139C1.87 3.644 5.511 0 10.003 0c4.49 0 8.081 3.644 8.132 8.139z" stroke="#FFF" stroke-width="2"/><path d="M4.252 13.89L15.753 2.389" fill="#FFF"/></g></svg></svg>