<?xml version="1.0" encoding="UTF-8" standalone="no"?><svg width="124" height="112" viewBox="0 0 124 112" xmlns="http://www.w3.org/2000/svg" xmlns:xlink="http://www.w3.org/1999/xlink"><svg width="62" height="28" viewBox="0 0 62 28" id="amex"><title>450E9E0C-F872-4540-B55A-BB376C2187D4</title><path d="M11.047 3.218c0-1.191.966-2.157 2.157-2.157H49.33c1.191 0 2.157.965 2.157 2.157V24.3a2.157 2.157 0 0 1-2.157 2.157H13.204a2.157 2.157 0 0 1-2.157-2.157V3.218zm0 9.754h1.943l.438-1.052h.98l.437 1.052h3.823v-.804l.34.808h1.985l.341-.82v.816h9.499l-.005-1.727h.184c.129.005.167.017.167.228v1.5h4.912v-.403c.397.212 1.013.402 1.824.402h2.067l.442-1.052h.98l.433 1.052h3.983v-1l.603 1h3.192V6.366h-3.159v.78l-.442-.78h-3.241v.78l-.406-.78h-4.378c-.733 0-1.377.102-1.898.386v-.386h-3.02v.386c-.332-.293-.783-.386-1.285-.386H20.75l-.74 1.706-.761-1.706H15.77v.78l-.382-.78h-2.965l-1.377 3.141v3.465zm12.276-.93h-1.166l-.004-3.71-1.649 3.71h-.998l-1.653-3.713v3.713h-2.312l-.437-1.057h-2.367l-.442 1.057h-1.234l2.036-4.737h1.689l1.933 4.485V7.305h1.856l1.488 3.213 1.367-3.213h1.893v4.737zm-8.63-2.044l-.778-1.888-.773 1.888h1.552zm13.275 2.044H24.17V7.305h3.798v.987h-2.66v.853h2.596v.971h-2.597v.946h2.661v.98zm5.355-3.461c0 .755-.506 1.145-.8 1.262.248.095.46.261.562.4.16.235.188.445.188.868v.93h-1.147l-.004-.596c0-.285.027-.695-.18-.923-.166-.167-.419-.203-.828-.203h-1.22v1.723h-1.138V7.305h2.615c.581 0 1.01.016 1.377.227.36.212.575.52.575 1.049zm-1.486.665c-.157.095-.341.098-.563.098h-1.381V8.292h1.4c.198 0 .405.009.54.085.147.07.238.216.238.419 0 .207-.087.373-.234.45zm3.306 2.796h-1.16V7.305h1.16v4.737zm13.458 0h-1.61l-2.156-3.555v3.555H42.52l-.443-1.057h-2.362l-.429 1.057h-1.33c-.553 0-1.253-.122-1.649-.524-.4-.402-.607-.947-.607-1.808 0-.703.124-1.345.613-1.852.367-.378.943-.553 1.726-.553h1.101V8.32h-1.078c-.415 0-.649.062-.874.28-.194.2-.327.577-.327 1.074 0 .507.101.873.312 1.112.175.188.493.244.793.244h.51l1.603-3.725h1.703l1.925 4.48v-4.48h1.731l1.999 3.3v-3.3H48.6v4.737zM41.69 9.998l-.787-1.888-.783 1.888h1.57zm9.798 9.586c-.276.402-.814.606-1.543.606h-2.196v-1.016h2.187c.217 0 .369-.029.46-.118a.416.416 0 0 0 .135-.309.388.388 0 0 0-.14-.313c-.082-.072-.202-.105-.4-.105-1.067-.036-2.4.033-2.4-1.466 0-.688.439-1.411 1.632-1.411h2.265v-.943h-2.104c-.635 0-1.097.152-1.423.387v-.387h-3.113c-.497 0-1.081.123-1.358.387v-.387h-5.557v.387c-.443-.317-1.19-.387-1.534-.387h-3.665v.387c-.35-.337-1.129-.387-1.603-.387h-4.103l-.938 1.012-.88-1.012h-6.128v6.611h6.013l.967-1.028.912 1.028 3.706.003v-1.555h.365c.491.008 1.072-.012 1.583-.232v1.784h3.058v-1.723h.147c.188 0 .207.008.207.195v1.528h9.287c.59 0 1.206-.15 1.548-.423v.423h2.946c.613 0 1.211-.086 1.667-.305v-1.231zm-18.413-2.571c0 1.316-.986 1.587-1.98 1.587h-1.419v1.59h-2.21l-1.4-1.569-1.454 1.569h-4.504v-4.738h4.573l1.399 1.553 1.446-1.553h3.633c.902 0 1.916.249 1.916 1.56zm-9.039 2.19h-2.795v-.943h2.496v-.967H21.24v-.861h2.85l1.244 1.38-1.299 1.39zm4.508.556l-1.746-1.93 1.746-1.869v3.799zm2.602-2.12h-1.47v-1.207h1.483c.41 0 .695.166.695.58 0 .41-.271.626-.708.626zm7.67-2.187h3.795v.98H39.95v.861h2.597v.967H39.95v.942l2.662.005v.983h-3.795v-4.738zm-1.436 2.536c.253.093.46.26.557.398.16.23.184.447.189.864v.94h-1.142v-.593c0-.285.028-.707-.184-.928-.166-.17-.419-.21-.834-.21h-1.215v1.73H33.61v-4.737h2.625c.575 0 .994.025 1.368.223.358.216.584.512.584 1.053 0 .756-.507 1.142-.806 1.26zm-.686-.59c-.153.09-.34.098-.562.098h-1.381v-1.064h1.4c.202 0 .405.004.543.085.147.077.235.224.235.427a.51.51 0 0 1-.235.454zm10.259.293c.221.228.34.516.34 1.004 0 1.019-.64 1.495-1.786 1.495h-2.215v-1.016h2.206c.215 0 .368-.029.464-.118a.42.42 0 0 0 .134-.309.406.406 0 0 0-.138-.313c-.087-.072-.207-.105-.405-.105-1.063-.036-2.395.033-2.395-1.466 0-.688.434-1.411 1.626-1.411h2.279v1.008h-2.086c-.206 0-.34.008-.455.086-.125.077-.17.19-.17.34 0 .18.105.301.248.354.12.041.249.053.442.053l.612.017c.618.015 1.041.121 1.299.38zm4.535-1.23h-2.072c-.207 0-.345.007-.46.085-.12.076-.166.19-.166.34 0 .18.1.3.248.353a1.3 1.3 0 0 0 .438.054l.617.017c.621.015 1.036.121 1.29.38.045.037.073.078.105.118V16.46z" fill="#FFF" fill-rule="evenodd"/></svg><svg width="62" height="28" viewBox="0 0 62 28" id="dinners" y="28"><title>133230F4-6106-4B24-A3B9-1B0479C637E3</title><path d="M20.586 13.977a7.552 7.552 0 0 0 4.832 7.038V6.936a7.556 7.556 0 0 0-4.832 7.04m10.22-7.04v14.082a7.554 7.554 0 0 0 4.836-7.041 7.55 7.55 0 0 0-4.835-7.04m-2.694 18.94c-6.558-.002-11.873-5.328-11.874-11.9.001-6.574 5.316-11.9 11.874-11.903 6.56.003 11.874 5.329 11.876 11.903 0 6.572-5.316 11.898-11.876 11.9M34.187 1h-6.103C20.907.997 15 6.36 15 14.113 15 21.206 20.907 27.034 28.084 27h6.103c7.092.034 13.565-5.795 13.565-12.887C47.752 6.358 41.28.997 34.187 1m-13.6 12.977a7.552 7.552 0 0 0 4.83 7.038V6.936a7.556 7.556 0 0 0-4.83 7.04m10.22-7.04v14.082a7.554 7.554 0 0 0 4.835-7.041 7.55 7.55 0 0 0-4.835-7.04m-10.22 7.04a7.552 7.552 0 0 0 4.83 7.038V6.936a7.556 7.556 0 0 0-4.83 7.04m10.22-7.04v14.082a7.554 7.554 0 0 0 4.835-7.041 7.55 7.55 0 0 0-4.835-7.04" fill="#FFF" fill-rule="evenodd"/></svg><svg width="62" height="28" viewBox="0 0 62 28" id="elo" x="62"><title>082CD6C5-0D82-43A9-AC6E-4F976DCDA44E</title><defs><path id="ca" d="M13.752 26.543H0V.021h27.504v26.522H13.752z"/></defs><g transform="translate(17)" fill="none" fill-rule="evenodd"><path d="M9.657 12.317l-4.221 1.754c-.006-.07-.01-.14-.01-.213 0-1.288 1.082-2.331 2.418-2.331.722 0 1.37.306 1.813.79" fill="#FFF"/><g transform="translate(0 .055)"><mask id="cb" fill="#fff"><use xlink:href="#ca"/></mask><path d="M21.902 14.577c.123-.279.19-.584.19-.906 0-1.275-1.071-2.31-2.394-2.31-.623 0-1.19.23-1.616.606l-1.195-1.275a4.251 4.251 0 0 1 2.811-1.048c2.307 0 4.177 1.802 4.177 4.027 0 .612-.142 1.193-.396 1.712l-1.577-.806zm-2.166 3.194c-2.307 0-4.176-1.803-4.176-4.027 0-.631.15-1.23.419-1.76l1.576.805c-.137.291-.213.614-.213.955 0 1.275 1.072 2.309 2.394 2.309.645 0 1.23-.246 1.66-.645l1.195 1.275a4.244 4.244 0 0 1-2.855 1.088zm-4.884-.116l-1.543-.628c-.585-.24-.79-.585-.792-1.317l-.01-7.707h1.514v7.499c0 .072.009.135.107.172l1.317.494-.593 1.487zm-4.603-4.09v-.004l-1.743.738-4.18 1.763a3.954 3.954 0 0 1-.709-2.259c0-2.25 1.892-4.075 4.227-4.075 1.991 0 3.661 1.33 4.108 3.119l-1.703.717zM5.523 17.21l.993-1.457c1.001.577 2.007.483 3.017-.282l1.264 1.247c-1.514 1.385-3.516 1.522-5.274.492zM13.753.02C6.157.021 0 5.958 0 13.282c0 7.324 6.158 13.261 13.752 13.261 7.596 0 13.752-5.937 13.752-13.26C27.504 5.957 21.348.02 13.752.02z" fill="#FFF" mask="url(#cb)"/></g></g></svg><svg width="62" height="28" viewBox="0 0 62 28" id="hipercard" x="62" y="28"><title>1157A02B-DF1D-4B40-82F3-247F16969D1F</title><path d="M21.935 13.355c-.048-.444-.196-.85-.635-1.037-.747-.32-1.448-.196-2.07.326a.611.611 0 0 0-.195.323c-.137.687-.26 1.376-.377 2.067-.05.296-.113.596-.107.893.008.431.152.81.599 1 .74.311 1.674.023 2.11-.673.477-.764.675-1.608.677-2.503 0-.132.012-.266-.002-.396zm0 0c-.048-.444-.196-.85-.635-1.037-.747-.32-1.448-.196-2.07.326a.611.611 0 0 0-.195.323c-.137.687-.26 1.376-.377 2.067-.05.296-.113.596-.107.893.008.431.152.81.599 1 .74.311 1.674.023 2.11-.673.477-.764.675-1.608.677-2.503 0-.132.012-.266-.002-.396zm0 0c-.048-.444-.196-.85-.635-1.037-.747-.32-1.448-.196-2.07.326a.611.611 0 0 0-.195.323c-.137.687-.26 1.376-.377 2.067-.05.296-.113.596-.107.893.008.431.152.81.599 1 .74.311 1.674.023 2.11-.673.477-.764.675-1.608.677-2.503 0-.132.012-.266-.002-.396zm6.125-.947c-.207-.198-.467-.253-.743-.268-.49-.028-.967-.007-1.387.292-.396.284-.576.697-.704 1.165h3.003c.015-.089.034-.163.04-.237.03-.339.072-.682-.21-.952zm0 0c-.207-.198-.467-.253-.743-.268-.49-.028-.967-.007-1.387.292-.396.284-.576.697-.704 1.165h3.003c.015-.089.034-.163.04-.237.03-.339.072-.682-.21-.952zm-6.125.947c-.048-.444-.196-.85-.635-1.037-.747-.32-1.448-.196-2.07.326a.611.611 0 0 0-.195.323c-.137.687-.26 1.376-.377 2.067-.05.296-.113.596-.107.893.008.431.152.81.599 1 .74.311 1.674.023 2.11-.673.477-.764.675-1.608.677-2.503 0-.132.012-.266-.002-.396zm0 0c-.048-.444-.196-.85-.635-1.037-.747-.32-1.448-.196-2.07.326a.611.611 0 0 0-.195.323c-.137.687-.26 1.376-.377 2.067-.05.296-.113.596-.107.893.008.431.152.81.599 1 .74.311 1.674.023 2.11-.673.477-.764.675-1.608.677-2.503 0-.132.012-.266-.002-.396zm6.125-.947c-.207-.198-.467-.253-.743-.268-.49-.028-.967-.007-1.387.292-.396.284-.576.697-.704 1.165h3.003c.015-.089.034-.163.04-.237.03-.339.072-.682-.21-.952zm13.352 2.031c-.956.109-1.497.814-1.426 1.78.023.312.184.546.482.685.682.32 1.687-.043 2.071-.69.322-.542.444-1.148.558-1.786-.574 0-1.136-.051-1.685.011zm0 0c-.956.109-1.497.814-1.426 1.78.023.312.184.546.482.685.682.32 1.687-.043 2.071-.69.322-.542.444-1.148.558-1.786-.574 0-1.136-.051-1.685.011zM28.06 12.41c-.207-.199-.467-.254-.743-.27-.49-.027-.967-.006-1.387.293-.396.284-.576.697-.704 1.165h3.003c.015-.089.034-.163.04-.237.03-.339.072-.682-.21-.952zm-6.125.946c-.048-.444-.196-.85-.635-1.037-.747-.32-1.448-.196-2.07.326a.611.611 0 0 0-.195.323c-.137.687-.26 1.376-.377 2.067-.05.296-.113.596-.107.893.008.431.152.81.599 1 .74.311 1.674.023 2.11-.673.477-.764.675-1.608.677-2.503 0-.132.012-.266-.002-.396zm-.635-1.037c-.747-.32-1.448-.196-2.07.326a.611.611 0 0 0-.195.323c-.137.687-.26 1.376-.377 2.067-.05.296-.113.596-.107.893.008.431.152.81.599 1 .74.311 1.674.023 2.11-.673.477-.764.675-1.608.677-2.503 0-.132.012-.266-.002-.396-.048-.444-.196-.85-.635-1.037zm6.017-.178c-.49-.028-.967-.007-1.387.292-.396.284-.576.697-.704 1.165h3.003c.015-.089.034-.163.04-.237.03-.339.072-.682-.21-.952-.206-.198-.466-.253-.742-.268zm14.095 2.3c-.956.108-1.497.813-1.426 1.78.023.311.184.545.482.684.682.32 1.687-.043 2.071-.69.322-.542.444-1.148.558-1.786-.574 0-1.136-.051-1.685.011zm11.027-2.284c-.801-.017-1.38.352-1.756 1.044-.465.856-.636 1.775-.55 2.742.036.4.177.761.566.936.98.438 2.135-.156 2.377-1.213.143-.628.283-1.256.412-1.886.093-.459.165-.921.25-1.403-.251-.07-.47-.15-.697-.189-.197-.034-.4-.027-.602-.031zm1.705 5.562H52.97l.113-.847-.032-.017c-.06.08-.121.162-.183.242-.335.435-.786.669-1.321.747-.645.094-1.279.073-1.875-.224-.515-.257-.77-.71-.855-1.253-.173-1.115.055-2.172.54-3.174.38-.784.961-1.374 1.796-1.677.464-.168.95-.244 1.442-.209.422.03.842.106 1.3.166l.44-2.726h1.276c-.527 2.986-1.208 5.934-1.466 8.972zm-5.705-5.43c-.495.027-.836.328-1.117.712-.348.476-.479 1.03-.58 1.592-.161.898-.302 1.8-.452 2.702-.004.024-.002.05-.003.075-.012.367-.012.367-.373.367h-.927l1.113-6.279h1.107l-.175 1c.606-.906 1.328-1.42 2.445-.996l-.158.893c-.311-.026-.598-.082-.88-.066zm-3.849.429c-.03.292-.08.582-.127.873-.17 1.062-.349 2.124-.51 3.188-.046.308-.044.623-.065.946h-1.13l.085-.93c-.152.16-.289.312-.434.457-.444.44-1.006.59-1.606.635a2.771 2.771 0 0 1-1.203-.165c-.534-.204-.813-.618-.858-1.177-.05-.603.008-1.188.353-1.717.335-.514.813-.816 1.385-1 .846-.27 1.712-.19 2.576-.157.057.002.113 0 .214 0 .026-.297.071-.581.07-.866 0-.25-.169-.407-.392-.504-.388-.169-.8-.18-1.204-.13-.526.065-1.046.177-1.57.27-.059.01-.117.027-.209.05l.25-1.027c1.052-.046 2.096-.293 3.15-.08.27.055.55.145.785.286.386.23.485.622.44 1.048zm-9.776 3.133c.043.395.193.755.56.95.198.105.433.178.656.191.681.043 1.328-.127 1.986-.419-.059.318-.11.609-.169.898-.008.04-.051.095-.088.105-1.013.288-2.037.48-3.072.145-.649-.21-1.097-.808-1.18-1.508-.144-1.21.08-2.364.697-3.425.459-.786 1.136-1.265 2.045-1.41.614-.098 1.228-.083 1.843-.041.261.017.521.047.807.074l-.169 1.026c-.247-.061-.48-.124-.714-.176-.583-.128-1.164-.167-1.747.019a1.44 1.44 0 0 0-.844.678c-.506.897-.722 1.865-.61 2.893zm-2.735-2.923c-.336.432-.495.936-.59 1.466-.103.573-.219 1.143-.312 1.718-.086.53-.15 1.064-.226 1.612h-1.259l1.109-6.262h1.112l-.171.932c.608-.852 1.334-1.36 2.446-.926l-.178.91c-.197-.033-.391-.075-.588-.094-.576-.057-1.004.208-1.343.644zm-2.57.084c-.027.392-.108.78-.157 1.17-.018.14-.08.182-.22.18-1.025-.016-2.05-.024-3.074-.032-.332-.003-.664 0-1.048 0-.023.47-.073.888-.058 1.304.026.755.439 1.2 1.182 1.33.457.081.914.05 1.362-.053.412-.094.818-.219 1.243-.335-.005.043-.01.102-.021.16-.018.092-.042.184-.06.276-.037.182-.013.436-.124.532-.144.123-.394.142-.603.167-.597.07-1.194.141-1.794.172a2.987 2.987 0 0 1-1.514-.308 1.672 1.672 0 0 1-.946-1.365 6.39 6.39 0 0 1 .022-1.48 5.22 5.22 0 0 1 .584-1.815c.422-.784 1.063-1.273 1.935-1.479a4.613 4.613 0 0 1 1.94-.054c.355.067.684.2.947.458.328.322.432.734.403 1.172zm-7.143 3.6c-.726 1.054-1.774 1.402-3.005 1.27-.49-.052-.849-.322-1.081-.786l-.531 3.442h-1.274l1.606-9.078h1.097l-.106.542c.26-.152.494-.318.752-.434.683-.307 1.391-.347 2.114-.15.565.154.98.496 1.172 1.044.116.331.193.697.189 1.046-.014 1.118-.292 2.175-.933 3.105zm-6.536.761c-.06.364-.06.364-.432.364h-.913c.152-.78.305-1.52.44-2.265.19-1.051.371-2.105.551-3.16.04-.24.054-.485.092-.726.008-.05.07-.13.107-.132.401-.01.802-.006 1.215-.006-.105.539-.212 1.058-.308 1.579a238.4 238.4 0 0 0-.42 2.365c-.114.66-.222 1.32-.332 1.981zm-2.232-2.085c-.128.765-.255 1.53-.38 2.297-.016.1-.046.155-.164.154-.44-.007-.88-.003-1.366-.003l.81-4.396h-.616c-1.075.004-2.15.01-3.226.01-.12 0-.178.03-.199.161-.137.84-.285 1.678-.427 2.517-.095.561-.186 1.123-.28 1.696H6.26l.131-.716c.19-1.003.38-2.005.568-3.007.124-.665.253-1.329.363-1.996.138-.84.26-1.682.39-2.523.015-.104.04-.208.061-.312.056-.262.056-.262.33-.262h1.19l-.655 3.572h4.01l.604-3.56h1.49c-.083.432-.164.849-.242 1.266-.163.88-.33 1.76-.485 2.64-.145.82-.28 1.641-.417 2.462zM16.61 8.79c.353-.046.708.103.69.596-.017.459-.212.803-.564.932-.098.037-.206.044-.31.064-.43-.015-.594-.179-.593-.604 0-.554.284-.924.777-.988zM10.49 1A5.171 5.171 0 0 0 5.42 5.146L1 27h50.229a5.17 5.17 0 0 0 5.065-4.128L60.799 1h-50.31zm11.445 12.355c-.048-.444-.196-.85-.635-1.037-.747-.32-1.448-.196-2.07.326a.611.611 0 0 0-.195.323c-.137.687-.26 1.376-.377 2.067-.05.296-.113.596-.107.893.008.431.152.81.599 1 .74.311 1.674.023 2.11-.673.477-.764.675-1.608.677-2.503 0-.132.012-.266-.002-.396zm6.125-.947c-.207-.198-.467-.253-.743-.268-.49-.028-.967-.007-1.387.292-.396.284-.576.697-.704 1.165h3.003c.015-.089.034-.163.04-.237.03-.339.072-.682-.21-.952zm13.352 2.031c-.956.109-1.497.814-1.426 1.78.023.312.184.546.482.685.682.32 1.687-.043 2.071-.69.322-.542.444-1.148.558-1.786-.574 0-1.136-.051-1.685.011zm0 0c-.956.109-1.497.814-1.426 1.78.023.312.184.546.482.685.682.32 1.687-.043 2.071-.69.322-.542.444-1.148.558-1.786-.574 0-1.136-.051-1.685.011zM28.06 12.41c-.207-.199-.467-.254-.743-.27-.49-.027-.967-.006-1.387.293-.396.284-.576.697-.704 1.165h3.003c.015-.089.034-.163.04-.237.03-.339.072-.682-.21-.952zm-6.125.946c-.048-.444-.196-.85-.635-1.037-.747-.32-1.448-.196-2.07.326a.611.611 0 0 0-.195.323c-.137.687-.26 1.376-.377 2.067-.05.296-.113.596-.107.893.008.431.152.81.599 1 .74.311 1.674.023 2.11-.673.477-.764.675-1.608.677-2.503 0-.132.012-.266-.002-.396zm0 0c-.048-.444-.196-.85-.635-1.037-.747-.32-1.448-.196-2.07.326a.611.611 0 0 0-.195.323c-.137.687-.26 1.376-.377 2.067-.05.296-.113.596-.107.893.008.431.152.81.599 1 .74.311 1.674.023 2.11-.673.477-.764.675-1.608.677-2.503 0-.132.012-.266-.002-.396zm6.125-.947c-.207-.198-.467-.253-.743-.268-.49-.028-.967-.007-1.387.292-.396.284-.576.697-.704 1.165h3.003c.015-.089.034-.163.04-.237.03-.339.072-.682-.21-.952zm0 0c-.207-.198-.467-.253-.743-.268-.49-.028-.967-.007-1.387.292-.396.284-.576.697-.704 1.165h3.003c.015-.089.034-.163.04-.237.03-.339.072-.682-.21-.952zm-6.125.947c-.048-.444-.196-.85-.635-1.037-.747-.32-1.448-.196-2.07.326a.611.611 0 0 0-.195.323c-.137.687-.26 1.376-.377 2.067-.05.296-.113.596-.107.893.008.431.152.81.599 1 .74.311 1.674.023 2.11-.673.477-.764.675-1.608.677-2.503 0-.132.012-.266-.002-.396zm0 0c-.048-.444-.196-.85-.635-1.037-.747-.32-1.448-.196-2.07.326a.611.611 0 0 0-.195.323c-.137.687-.26 1.376-.377 2.067-.05.296-.113.596-.107.893.008.431.152.81.599 1 .74.311 1.674.023 2.11-.673.477-.764.675-1.608.677-2.503 0-.132.012-.266-.002-.396zm6.125-.947c-.207-.198-.467-.253-.743-.268-.49-.028-.967-.007-1.387.292-.396.284-.576.697-.704 1.165h3.003c.015-.089.034-.163.04-.237.03-.339.072-.682-.21-.952zm0 0c-.207-.198-.467-.253-.743-.268-.49-.028-.967-.007-1.387.292-.396.284-.576.697-.704 1.165h3.003c.015-.089.034-.163.04-.237.03-.339.072-.682-.21-.952zm-6.125.947c-.048-.444-.196-.85-.635-1.037-.747-.32-1.448-.196-2.07.326a.611.611 0 0 0-.195.323c-.137.687-.26 1.376-.377 2.067-.05.296-.113.596-.107.893.008.431.152.81.599 1 .74.311 1.674.023 2.11-.673.477-.764.675-1.608.677-2.503 0-.132.012-.266-.002-.396z" fill="#FFF" fill-rule="evenodd"/></svg><svg width="62" height="28" viewBox="0 0 62 28" id="mastercard" y="56"><title>41ADDA5C-C366-4358-9C48-EA91AA822FA9</title><path d="M20.114 14.645c-.686 0-1.032.234-1.032.696 0 .286.17.468.432.468.494 0 .848-.468.87-1.147a2.422 2.422 0 0 0-.27-.017zm9.558-1.585c-.383 0-.658.294-.768.821h1.328c.007-.095.127-.821-.56-.821zm-9.558 1.585c-.686 0-1.032.234-1.032.696 0 .286.17.468.432.468.494 0 .848-.468.87-1.147a2.422 2.422 0 0 0-.27-.017zm9.558-1.585c-.383 0-.658.294-.768.821h1.328c.007-.095.127-.821-.56-.821zm-9.558 1.585c-.686 0-1.032.234-1.032.696 0 .286.17.468.432.468.494 0 .848-.468.87-1.147a2.422 2.422 0 0 0-.27-.017zm9.558-1.585c-.383 0-.658.294-.768.821h1.328c.007-.095.127-.821-.56-.821zm10.606 1.585c-.685 0-1.032.234-1.032.696 0 .286.17.468.435.468.492 0 .848-.468.868-1.147a2.388 2.388 0 0 0-.271-.017zm6.496-1.442c-.549 0-.938.637-.938 1.539 0 .602.208.906.62.906.563 0 .96-.638.96-1.546 0-.584-.225-.9-.642-.9zm0 0c-.549 0-.938.637-.938 1.539 0 .602.208.906.62.906.563 0 .96-.638.96-1.546 0-.584-.225-.9-.642-.9zm-6.496 1.442c-.685 0-1.032.234-1.032.696 0 .286.17.468.435.468.492 0 .848-.468.868-1.147a2.388 2.388 0 0 0-.271-.017zm-20.164 0c-.686 0-1.032.234-1.032.696 0 .286.17.468.432.468.494 0 .848-.468.87-1.147a2.422 2.422 0 0 0-.27-.017zm9.558-1.585c-.383 0-.658.294-.768.821h1.328c.007-.095.127-.821-.56-.821zm-9.558 1.585c-.686 0-1.032.234-1.032.696 0 .286.17.468.432.468.494 0 .848-.468.87-1.147a2.422 2.422 0 0 0-.27-.017zm0 0c-.686 0-1.032.234-1.032.696 0 .286.17.468.432.468.494 0 .848-.468.87-1.147a2.422 2.422 0 0 0-.27-.017zm0 0c-.686 0-1.032.234-1.032.696 0 .286.17.468.432.468.494 0 .848-.468.87-1.147a2.422 2.422 0 0 0-.27-.017zm0 0c-.686 0-1.032.234-1.032.696 0 .286.17.468.432.468.494 0 .848-.468.87-1.147a2.422 2.422 0 0 0-.27-.017zm0 0c-.686 0-1.032.234-1.032.696 0 .286.17.468.432.468.494 0 .848-.468.87-1.147a2.422 2.422 0 0 0-.27-.017zm9.558-1.585c-.383 0-.658.294-.768.821h1.328c.007-.095.127-.821-.56-.821zm0 0c-.383 0-.658.294-.768.821h1.328c.007-.095.127-.821-.56-.821zm-9.558 1.585c-.686 0-1.032.234-1.032.696 0 .286.17.468.432.468.494 0 .848-.468.87-1.147a2.422 2.422 0 0 0-.27-.017zm0 0c-.686 0-1.032.234-1.032.696 0 .286.17.468.432.468.494 0 .848-.468.87-1.147a2.422 2.422 0 0 0-.27-.017zm9.558-1.585c-.383 0-.658.294-.768.821h1.328c.007-.095.127-.821-.56-.821zm10.606 1.585c-.685 0-1.032.234-1.032.696 0 .286.17.468.435.468.492 0 .848-.468.868-1.147a2.388 2.388 0 0 0-.271-.017zm0 0c-.685 0-1.032.234-1.032.696 0 .286.17.468.435.468.492 0 .848-.468.868-1.147a2.388 2.388 0 0 0-.271-.017zM29.672 13.06c-.383 0-.658.294-.768.821h1.328c.007-.095.127-.821-.56-.821zm-9.558 1.585c-.686 0-1.032.234-1.032.696 0 .286.17.468.432.468.494 0 .848-.468.87-1.147a2.422 2.422 0 0 0-.27-.017zm0 0c-.686 0-1.032.234-1.032.696 0 .286.17.468.432.468.494 0 .848-.468.87-1.147a2.422 2.422 0 0 0-.27-.017zm9.558-1.585c-.383 0-.658.294-.768.821h1.328c.007-.095.127-.821-.56-.821zm10.606 1.585c-.685 0-1.032.234-1.032.696 0 .286.17.468.435.468.492 0 .848-.468.868-1.147a2.388 2.388 0 0 0-.271-.017zm6.496-1.442c-.549 0-.938.637-.938 1.539 0 .602.208.906.62.906.563 0 .96-.638.96-1.546 0-.584-.225-.9-.642-.9zm0 0c-.549 0-.938.637-.938 1.539 0 .602.208.906.62.906.563 0 .96-.638.96-1.546 0-.584-.225-.9-.642-.9zm-6.496 1.442c-.685 0-1.032.234-1.032.696 0 .286.17.468.435.468.492 0 .848-.468.868-1.147a2.388 2.388 0 0 0-.271-.017zM29.672 13.06c-.383 0-.658.294-.768.821h1.328c.007-.095.127-.821-.56-.821zm-9.558 1.585c-.686 0-1.032.234-1.032.696 0 .286.17.468.432.468.494 0 .848-.468.87-1.147a2.422 2.422 0 0 0-.27-.017zm-1.032.696c0 .286.17.468.432.468.494 0 .848-.468.87-1.147a2.422 2.422 0 0 0-.27-.017c-.686 0-1.032.234-1.032.696zm10.59-2.281c-.383 0-.658.294-.768.821h1.328c.007-.095.127-.821-.56-.821zm9.574 2.281c0 .286.17.468.435.468.492 0 .848-.468.868-1.147a2.388 2.388 0 0 0-.271-.017c-.685 0-1.032.234-1.032.696zm7.528-2.138c-.549 0-.938.637-.938 1.539 0 .602.208.906.62.906.563 0 .96-.638.96-1.546 0-.584-.225-.9-.642-.9zm.322 3.504l.057-.427c-.332.353-.673.507-1.115.507-.88 0-1.46-.756-1.46-1.903 0-1.528.9-2.813 1.967-2.813.468 0 .826.19 1.157.625l.266-1.63h1.193l-.92 5.641h-1.145zm-3.848 0h-1.209l.055-.309c.21-1.421.478-2.86.63-4.278h1.11c.012.233-.04.46-.07.696.37-.542.652-.83 1.16-.724-.152.254-.353.755-.46 1.331-.678-.07-.783.479-1.216 3.284zm-1.458-2.434c-.105.663-.33 2.086-.361 2.434h-1.002l.024-.476c-.308.376-.716.556-1.27.556-.655 0-1.105-.512-1.105-1.252 0-1.119.783-1.77 2.124-1.77.137 0 .313.014.494.037.036-.153.046-.217.046-.3 0-.302-.21-.416-.774-.416a3.977 3.977 0 0 0-1.28.206c.011-.077.167-1.031.167-1.031.602-.177 1.001-.244 1.446-.244 1.04 0 1.59.464 1.588 1.345.003.235-.037.527-.097.91zM37.52 16.62c-.445.123-.734.167-1.068.167-1.302 0-2.114-.937-2.114-2.435 0-2.017 1.122-3.425 2.725-3.425.528 0 1.151.223 1.328.292l-.198 1.224c-.431-.218-.745-.305-1.08-.305-.904 0-1.535.87-1.535 2.114 0 .855.423 1.374 1.127 1.374.298 0 .627-.094 1.027-.29l-.212 1.284zm-3.631-3.197c-.678-.07-.781.479-1.215 3.284h-1.21l.056-.309c.21-1.421.48-2.86.631-4.278h1.11c.01.233-.042.46-.071.696.369-.542.654-.83 1.16-.724-.15.254-.352.755-.461 1.331zm-2.684 1.384h-2.394c-.08.664.347.94 1.046.94.43 0 .817-.087 1.249-.287l-.199 1.142a4.173 4.173 0 0 1-1.235.185c-1.346-.003-2.048-.704-2.048-2.048 0-1.567.893-2.722 2.105-2.722.991 0 1.625.645 1.625 1.661 0 .336-.045.664-.15 1.13zm-3.777-1.584h-.62c-.14.871-.339 1.956-.341 2.102 0 .238.127.34.415.34.138 0 .244-.015.326-.043l-.16 1.016a2.83 2.83 0 0 1-.87.15c-.618 0-.955-.357-.955-1.01-.008-.202.09-.735.167-1.223.068-.428.523-3.128.523-3.128h1.202l-.14.693h.618l-.165 1.103zm-2.528-.051a6.649 6.649 0 0 0-.868-.07c-.391 0-.593.126-.593.375 0 .214.059.266.565.499.607.279.852.645.852 1.278 0 1.047-.588 1.533-1.865 1.533-.739-.02-.983-.077-1.26-.136.009-.049.168-1.06.168-1.06.386.126.723.18 1.084.18.479 0 .695-.129.695-.413 0-.21-.076-.276-.566-.507-.64-.302-.92-.7-.92-1.281-.006-.849.463-1.553 1.816-1.553.277 0 .75.041 1.065.09l-.173 1.065zm-3.276 1.1c-.106.664-.33 2.087-.362 2.435h-1.002l.023-.476c-.306.376-.714.556-1.267.556-.657 0-1.104-.512-1.104-1.252 0-1.119.78-1.77 2.122-1.77.137 0 .313.014.493.037.037-.153.047-.217.047-.3 0-.302-.21-.416-.776-.416a3.98 3.98 0 0 0-1.28.206l.169-1.031c.601-.177 1-.244 1.447-.244 1.039 0 1.589.464 1.587 1.345.002.235-.037.527-.097.91zm-5.635 2.435l.692-4.336-1.546 4.336h-.825l-.102-4.31-.727 4.31h-1.133l.945-5.642h1.74l.049 3.492 1.174-3.492h1.878l-.936 5.642h-1.21zM38.626 1c-2.95 0-5.67.994-7.843 2.665a12.887 12.887 0 0 1 4.647 7.195h-1.234a11.634 11.634 0 0 0-.853-2.247 11.791 11.791 0 0 0-2.589-3.407 11.791 11.791 0 0 0-2.588 3.407c-.364.725-.65 1.475-.854 2.247h-1.233a12.887 12.887 0 0 1 4.646-7.195A12.818 12.818 0 0 0 22.882 1C15.779 1 10 6.766 10 13.855c0 7.09 5.779 12.859 12.882 12.859 2.95 0 5.67-.998 7.842-2.667a12.901 12.901 0 0 1-4.497-6.626h1.251c.184.574.413 1.133.688 1.68a11.791 11.791 0 0 0 2.588 3.406 11.791 11.791 0 0 0 2.589-3.406c.274-.547.504-1.106.687-1.68h1.251a12.902 12.902 0 0 1-4.498 6.627 12.845 12.845 0 0 0 7.843 2.666c7.103 0 12.882-5.77 12.882-12.859S45.73 1 38.626 1zM20.114 14.645c-.686 0-1.032.234-1.032.696 0 .286.17.468.432.468.494 0 .848-.468.87-1.147a2.422 2.422 0 0 0-.27-.017zm9.558-1.585c-.383 0-.658.294-.768.821h1.328c.007-.095.127-.821-.56-.821zm10.606 1.585c-.685 0-1.032.234-1.032.696 0 .286.17.468.435.468.492 0 .848-.468.868-1.147a2.388 2.388 0 0 0-.271-.017zm6.496-1.442c-.549 0-.938.637-.938 1.539 0 .602.208.906.62.906.563 0 .96-.638.96-1.546 0-.584-.225-.9-.642-.9zm0 0c-.549 0-.938.637-.938 1.539 0 .602.208.906.62.906.563 0 .96-.638.96-1.546 0-.584-.225-.9-.642-.9zm-6.496 1.442c-.685 0-1.032.234-1.032.696 0 .286.17.468.435.468.492 0 .848-.468.868-1.147a2.388 2.388 0 0 0-.271-.017zM29.672 13.06c-.383 0-.658.294-.768.821h1.328c.007-.095.127-.821-.56-.821zm-9.558 1.585c-.686 0-1.032.234-1.032.696 0 .286.17.468.432.468.494 0 .848-.468.87-1.147a2.422 2.422 0 0 0-.27-.017zm0 0c-.686 0-1.032.234-1.032.696 0 .286.17.468.432.468.494 0 .848-.468.87-1.147a2.422 2.422 0 0 0-.27-.017zm9.558-1.585c-.383 0-.658.294-.768.821h1.328c.007-.095.127-.821-.56-.821zm10.606 1.585c-.685 0-1.032.234-1.032.696 0 .286.17.468.435.468.492 0 .848-.468.868-1.147a2.388 2.388 0 0 0-.271-.017zm0 0c-.685 0-1.032.234-1.032.696 0 .286.17.468.435.468.492 0 .848-.468.868-1.147a2.388 2.388 0 0 0-.271-.017zM29.672 13.06c-.383 0-.658.294-.768.821h1.328c.007-.095.127-.821-.56-.821zm-9.558 1.585c-.686 0-1.032.234-1.032.696 0 .286.17.468.432.468.494 0 .848-.468.87-1.147a2.422 2.422 0 0 0-.27-.017zm0 0c-.686 0-1.032.234-1.032.696 0 .286.17.468.432.468.494 0 .848-.468.87-1.147a2.422 2.422 0 0 0-.27-.017zm9.558-1.585c-.383 0-.658.294-.768.821h1.328c.007-.095.127-.821-.56-.821zm0 0c-.383 0-.658.294-.768.821h1.328c.007-.095.127-.821-.56-.821zm-9.558 1.585c-.686 0-1.032.234-1.032.696 0 .286.17.468.432.468.494 0 .848-.468.87-1.147a2.422 2.422 0 0 0-.27-.017zm0 0c-.686 0-1.032.234-1.032.696 0 .286.17.468.432.468.494 0 .848-.468.87-1.147a2.422 2.422 0 0 0-.27-.017zm9.558-1.585c-.383 0-.658.294-.768.821h1.328c.007-.095.127-.821-.56-.821zm0 0c-.383 0-.658.294-.768.821h1.328c.007-.095.127-.821-.56-.821zm-9.558 1.585c-.686 0-1.032.234-1.032.696 0 .286.17.468.432.468.494 0 .848-.468.87-1.147a2.422 2.422 0 0 0-.27-.017zm0 0c-.686 0-1.032.234-1.032.696 0 .286.17.468.432.468.494 0 .848-.468.87-1.147a2.422 2.422 0 0 0-.27-.017zm0 0c-.686 0-1.032.234-1.032.696 0 .286.17.468.432.468.494 0 .848-.468.87-1.147a2.422 2.422 0 0 0-.27-.017zm9.558-1.585c-.383 0-.658.294-.768.821h1.328c.007-.095.127-.821-.56-.821zm-9.558 1.585c-.686 0-1.032.234-1.032.696 0 .286.17.468.432.468.494 0 .848-.468.87-1.147a2.422 2.422 0 0 0-.27-.017zm20.164 0c-.685 0-1.032.234-1.032.696 0 .286.17.468.435.468.492 0 .848-.468.868-1.147a2.388 2.388 0 0 0-.271-.017zm0 0c-.685 0-1.032.234-1.032.696 0 .286.17.468.435.468.492 0 .848-.468.868-1.147a2.388 2.388 0 0 0-.271-.017zM29.672 13.06c-.383 0-.658.294-.768.821h1.328c.007-.095.127-.821-.56-.821zm-9.558 1.585c-.686 0-1.032.234-1.032.696 0 .286.17.468.432.468.494 0 .848-.468.87-1.147a2.422 2.422 0 0 0-.27-.017zm0 0c-.686 0-1.032.234-1.032.696 0 .286.17.468.432.468.494 0 .848-.468.87-1.147a2.422 2.422 0 0 0-.27-.017zm0 0c-.686 0-1.032.234-1.032.696 0 .286.17.468.432.468.494 0 .848-.468.87-1.147a2.422 2.422 0 0 0-.27-.017zm0 0c-.686 0-1.032.234-1.032.696 0 .286.17.468.432.468.494 0 .848-.468.87-1.147a2.422 2.422 0 0 0-.27-.017zm9.558-1.585c-.383 0-.658.294-.768.821h1.328c.007-.095.127-.821-.56-.821zm-9.558 1.585c-.686 0-1.032.234-1.032.696 0 .286.17.468.432.468.494 0 .848-.468.87-1.147a2.422 2.422 0 0 0-.27-.017zm9.558-1.585c-.383 0-.658.294-.768.821h1.328c.007-.095.127-.821-.56-.821zm-9.558 1.585c-.686 0-1.032.234-1.032.696 0 .286.17.468.432.468.494 0 .848-.468.87-1.147a2.422 2.422 0 0 0-.27-.017zm9.558-1.585c-.383 0-.658.294-.768.821h1.328c.007-.095.127-.821-.56-.821zm10.606 1.585c-.685 0-1.032.234-1.032.696 0 .286.17.468.435.468.492 0 .848-.468.868-1.147a2.388 2.388 0 0 0-.271-.017zm6.496-1.442c-.549 0-.938.637-.938 1.539 0 .602.208.906.62.906.563 0 .96-.638.96-1.546 0-.584-.225-.9-.642-.9zm0 0c-.549 0-.938.637-.938 1.539 0 .602.208.906.62.906.563 0 .96-.638.96-1.546 0-.584-.225-.9-.642-.9zm-6.496 1.442c-.685 0-1.032.234-1.032.696 0 .286.17.468.435.468.492 0 .848-.468.868-1.147a2.388 2.388 0 0 0-.271-.017zm-20.164 0c-.686 0-1.032.234-1.032.696 0 .286.17.468.432.468.494 0 .848-.468.87-1.147a2.422 2.422 0 0 0-.27-.017zm9.558-1.585c-.383 0-.658.294-.768.821h1.328c.007-.095.127-.821-.56-.821zm-9.558 1.585c-.686 0-1.032.234-1.032.696 0 .286.17.468.432.468.494 0 .848-.468.87-1.147a2.422 2.422 0 0 0-.27-.017zm0 0c-.686 0-1.032.234-1.032.696 0 .286.17.468.432.468.494 0 .848-.468.87-1.147a2.422 2.422 0 0 0-.27-.017zm0 0c-.686 0-1.032.234-1.032.696 0 .286.17.468.432.468.494 0 .848-.468.87-1.147a2.422 2.422 0 0 0-.27-.017zm0 0c-.686 0-1.032.234-1.032.696 0 .286.17.468.432.468.494 0 .848-.468.87-1.147a2.422 2.422 0 0 0-.27-.017zm0 0c-.686 0-1.032.234-1.032.696 0 .286.17.468.432.468.494 0 .848-.468.87-1.147a2.422 2.422 0 0 0-.27-.017zm9.558-1.585c-.383 0-.658.294-.768.821h1.328c.007-.095.127-.821-.56-.821zm0 0c-.383 0-.658.294-.768.821h1.328c.007-.095.127-.821-.56-.821zm-9.558 1.585c-.686 0-1.032.234-1.032.696 0 .286.17.468.432.468.494 0 .848-.468.87-1.147a2.422 2.422 0 0 0-.27-.017zm0 0c-.686 0-1.032.234-1.032.696 0 .286.17.468.432.468.494 0 .848-.468.87-1.147a2.422 2.422 0 0 0-.27-.017zm9.558-1.585c-.383 0-.658.294-.768.821h1.328c.007-.095.127-.821-.56-.821zm10.606 1.585c-.685 0-1.032.234-1.032.696 0 .286.17.468.435.468.492 0 .848-.468.868-1.147a2.388 2.388 0 0 0-.271-.017zm0 0c-.685 0-1.032.234-1.032.696 0 .286.17.468.435.468.492 0 .848-.468.868-1.147a2.388 2.388 0 0 0-.271-.017zM29.672 13.06c-.383 0-.658.294-.768.821h1.328c.007-.095.127-.821-.56-.821zm-9.558 1.585c-.686 0-1.032.234-1.032.696 0 .286.17.468.432.468.494 0 .848-.468.87-1.147a2.422 2.422 0 0 0-.27-.017zm0 0c-.686 0-1.032.234-1.032.696 0 .286.17.468.432.468.494 0 .848-.468.87-1.147a2.422 2.422 0 0 0-.27-.017zm20.164 0c-.685 0-1.032.234-1.032.696 0 .286.17.468.435.468.492 0 .848-.468.868-1.147a2.388 2.388 0 0 0-.271-.017zm6.496-1.442c-.549 0-.938.637-.938 1.539 0 .602.208.906.62.906.563 0 .96-.638.96-1.546 0-.584-.225-.9-.642-.9zm-26.66 1.442c-.686 0-1.032.234-1.032.696 0 .286.17.468.432.468.494 0 .848-.468.87-1.147a2.422 2.422 0 0 0-.27-.017zm9.558-1.585c-.383 0-.658.294-.768.821h1.328c.007-.095.127-.821-.56-.821zm-9.558 1.585c-.686 0-1.032.234-1.032.696 0 .286.17.468.432.468.494 0 .848-.468.87-1.147a2.422 2.422 0 0 0-.27-.017zm9.558-1.585c-.383 0-.658.294-.768.821h1.328c.007-.095.127-.821-.56-.821zm10.606 1.585c-.685 0-1.032.234-1.032.696 0 .286.17.468.435.468.492 0 .848-.468.868-1.147a2.388 2.388 0 0 0-.271-.017zm6.496-1.442c-.549 0-.938.637-.938 1.539 0 .602.208.906.62.906.563 0 .96-.638.96-1.546 0-.584-.225-.9-.642-.9zm0 0c-.549 0-.938.637-.938 1.539 0 .602.208.906.62.906.563 0 .96-.638.96-1.546 0-.584-.225-.9-.642-.9zm-6.496 1.442c-.685 0-1.032.234-1.032.696 0 .286.17.468.435.468.492 0 .848-.468.868-1.147a2.388 2.388 0 0 0-.271-.017zM29.672 13.06c-.383 0-.658.294-.768.821h1.328c.007-.095.127-.821-.56-.821zm-9.558 1.585c-.686 0-1.032.234-1.032.696 0 .286.17.468.432.468.494 0 .848-.468.87-1.147a2.422 2.422 0 0 0-.27-.017zm0 0c-.686 0-1.032.234-1.032.696 0 .286.17.468.432.468.494 0 .848-.468.87-1.147a2.422 2.422 0 0 0-.27-.017zm9.558-1.585c-.383 0-.658.294-.768.821h1.328c.007-.095.127-.821-.56-.821zm10.606 1.585c-.685 0-1.032.234-1.032.696 0 .286.17.468.435.468.492 0 .848-.468.868-1.147a2.388 2.388 0 0 0-.271-.017zm0 0c-.685 0-1.032.234-1.032.696 0 .286.17.468.435.468.492 0 .848-.468.868-1.147a2.388 2.388 0 0 0-.271-.017zM29.672 13.06c-.383 0-.658.294-.768.821h1.328c.007-.095.127-.821-.56-.821zm-9.558 1.585c-.686 0-1.032.234-1.032.696 0 .286.17.468.432.468.494 0 .848-.468.87-1.147a2.422 2.422 0 0 0-.27-.017zm0 0c-.686 0-1.032.234-1.032.696 0 .286.17.468.432.468.494 0 .848-.468.87-1.147a2.422 2.422 0 0 0-.27-.017zm9.558-1.585c-.383 0-.658.294-.768.821h1.328c.007-.095.127-.821-.56-.821zm0 0c-.383 0-.658.294-.768.821h1.328c.007-.095.127-.821-.56-.821zm-9.558 1.585c-.686 0-1.032.234-1.032.696 0 .286.17.468.432.468.494 0 .848-.468.87-1.147a2.422 2.422 0 0 0-.27-.017zm0 0c-.686 0-1.032.234-1.032.696 0 .286.17.468.432.468.494 0 .848-.468.87-1.147a2.422 2.422 0 0 0-.27-.017zm9.558-1.585c-.383 0-.658.294-.768.821h1.328c.007-.095.127-.821-.56-.821zm0 0c-.383 0-.658.294-.768.821h1.328c.007-.095.127-.821-.56-.821zm-9.558 1.585c-.686 0-1.032.234-1.032.696 0 .286.17.468.432.468.494 0 .848-.468.87-1.147a2.422 2.422 0 0 0-.27-.017zm0 0c-.686 0-1.032.234-1.032.696 0 .286.17.468.432.468.494 0 .848-.468.87-1.147a2.422 2.422 0 0 0-.27-.017zm0 0c-.686 0-1.032.234-1.032.696 0 .286.17.468.432.468.494 0 .848-.468.87-1.147a2.422 2.422 0 0 0-.27-.017zm9.558-1.585c-.383 0-.658.294-.768.821h1.328c.007-.095.127-.821-.56-.821zm-9.558 1.585c-.686 0-1.032.234-1.032.696 0 .286.17.468.432.468.494 0 .848-.468.87-1.147a2.422 2.422 0 0 0-.27-.017zm20.164 0c-.685 0-1.032.234-1.032.696 0 .286.17.468.435.468.492 0 .848-.468.868-1.147a2.388 2.388 0 0 0-.271-.017zm0 0c-.685 0-1.032.234-1.032.696 0 .286.17.468.435.468.492 0 .848-.468.868-1.147a2.388 2.388 0 0 0-.271-.017zM29.672 13.06c-.383 0-.658.294-.768.821h1.328c.007-.095.127-.821-.56-.821zm-9.558 1.585c-.686 0-1.032.234-1.032.696 0 .286.17.468.432.468.494 0 .848-.468.87-1.147a2.422 2.422 0 0 0-.27-.017zm0 0c-.686 0-1.032.234-1.032.696 0 .286.17.468.432.468.494 0 .848-.468.87-1.147a2.422 2.422 0 0 0-.27-.017zm0 0c-.686 0-1.032.234-1.032.696 0 .286.17.468.432.468.494 0 .848-.468.87-1.147a2.422 2.422 0 0 0-.27-.017zm0 0c-.686 0-1.032.234-1.032.696 0 .286.17.468.432.468.494 0 .848-.468.87-1.147a2.422 2.422 0 0 0-.27-.017zm9.558-1.585c-.383 0-.658.294-.768.821h1.328c.007-.095.127-.821-.56-.821zm0 0c-.383 0-.658.294-.768.821h1.328c.007-.095.127-.821-.56-.821zm-9.558 1.585c-.686 0-1.032.234-1.032.696 0 .286.17.468.432.468.494 0 .848-.468.87-1.147a2.422 2.422 0 0 0-.27-.017zm0 0c-.686 0-1.032.234-1.032.696 0 .286.17.468.432.468.494 0 .848-.468.87-1.147a2.422 2.422 0 0 0-.27-.017zm9.558-1.585c-.383 0-.658.294-.768.821h1.328c.007-.095.127-.821-.56-.821zm10.606 1.585c-.685 0-1.032.234-1.032.696 0 .286.17.468.435.468.492 0 .848-.468.868-1.147a2.388 2.388 0 0 0-.271-.017zm6.496-1.442c-.549 0-.938.637-.938 1.539 0 .602.208.906.62.906.563 0 .96-.638.96-1.546 0-.584-.225-.9-.642-.9zm-6.496 1.442c-.685 0-1.032.234-1.032.696 0 .286.17.468.435.468.492 0 .848-.468.868-1.147a2.388 2.388 0 0 0-.271-.017zM29.672 13.06c-.383 0-.658.294-.768.821h1.328c.007-.095.127-.821-.56-.821zm-9.558 1.585c-.686 0-1.032.234-1.032.696 0 .286.17.468.432.468.494 0 .848-.468.87-1.147a2.422 2.422 0 0 0-.27-.017zm26.66-1.442c-.549 0-.938.637-.938 1.539 0 .602.208.906.62.906.563 0 .96-.638.96-1.546 0-.584-.225-.9-.642-.9zm-26.66 1.442c-.686 0-1.032.234-1.032.696 0 .286.17.468.432.468.494 0 .848-.468.87-1.147a2.422 2.422 0 0 0-.27-.017zm9.558-1.585c-.383 0-.658.294-.768.821h1.328c.007-.095.127-.821-.56-.821zm10.606 1.585c-.685 0-1.032.234-1.032.696 0 .286.17.468.435.468.492 0 .848-.468.868-1.147a2.388 2.388 0 0 0-.271-.017zm0 0c-.685 0-1.032.234-1.032.696 0 .286.17.468.435.468.492 0 .848-.468.868-1.147a2.388 2.388 0 0 0-.271-.017zM29.672 13.06c-.383 0-.658.294-.768.821h1.328c.007-.095.127-.821-.56-.821zm-9.558 1.585c-.686 0-1.032.234-1.032.696 0 .286.17.468.432.468.494 0 .848-.468.87-1.147a2.422 2.422 0 0 0-.27-.017zm0 0c-.686 0-1.032.234-1.032.696 0 .286.17.468.432.468.494 0 .848-.468.87-1.147a2.422 2.422 0 0 0-.27-.017zm0 0c-.686 0-1.032.234-1.032.696 0 .286.17.468.432.468.494 0 .848-.468.87-1.147a2.422 2.422 0 0 0-.27-.017zm0 0c-.686 0-1.032.234-1.032.696 0 .286.17.468.432.468.494 0 .848-.468.87-1.147a2.422 2.422 0 0 0-.27-.017zm0 0c-.686 0-1.032.234-1.032.696 0 .286.17.468.432.468.494 0 .848-.468.87-1.147a2.422 2.422 0 0 0-.27-.017zm20.164 0c-.685 0-1.032.234-1.032.696 0 .286.17.468.435.468.492 0 .848-.468.868-1.147a2.388 2.388 0 0 0-.271-.017zM29.672 13.06c-.383 0-.658.294-.768.821h1.328c.007-.095.127-.821-.56-.821zm17.102.143c-.549 0-.938.637-.938 1.539 0 .602.208.906.62.906.563 0 .96-.638.96-1.546 0-.584-.225-.9-.642-.9z" fill="#FFF" fill-rule="evenodd"/></svg><svg width="62" height="28" viewBox="0 0 62 28" id="mercadopago" x="62" y="56"><title>FD438D89-09D1-4967-BD34-3167A0676CAE</title><defs><path id="fa" d="M.649 26.194h12.256V.69H.649v25.504z"/><path id="fc" d="M.594.903h.902V.351H.594v.552z"/></defs><g transform="translate(13)" fill="none" fill-rule="evenodd"><path d="M2.933 1.92c-1.058 0-1.918.889-1.918 1.984v19.5a2 2 0 0 0 .588 1.427c.36.36.83.558 1.327.558h22.637c2.457 0 4.773-.985 6.518-2.772 2.191-2.244 3.351-5.54 3.265-9.28V3.903c0-1.095-.86-1.985-1.92-1.985H2.933zm-.004 24.372a2.766 2.766 0 0 1-1.964-.822 2.9 2.9 0 0 1-.852-2.066v-19.5c0-1.593 1.265-2.888 2.82-2.888H33.43c1.557 0 2.823 1.295 2.823 2.888v9.422c.09 3.975-1.16 7.503-3.522 9.921-1.917 1.964-4.461 3.045-7.164 3.045H2.929z" fill="#FFF"/><path d="M2.933 2.032c-.995 0-1.805.84-1.805 1.872v19.5c0 .512.197.99.555 1.347.338.338.78.525 1.247.525h22.637c2.428 0 4.713-.973 6.438-2.739 2.17-2.222 3.317-5.489 3.233-9.198V3.904c0-1.033-.812-1.872-1.808-1.872H2.933zm22.634 23.47H2.933c-.529 0-1.029-.21-1.41-.591-.4-.4-.62-.935-.62-1.507v-19.5c0-1.156.91-2.098 2.03-2.098H33.43c1.122 0 2.033.942 2.033 2.098v9.432c.087 3.768-1.085 7.094-3.296 9.36-1.767 1.809-4.112 2.806-6.6 2.806zM2.933 1.129C1.44 1.129.226 2.374.226 3.904v19.5c0 .753.29 1.458.819 1.987a2.652 2.652 0 0 0 1.884.788h22.638c2.672 0 5.188-1.07 7.083-3.01 2.341-2.398 3.58-5.892 3.49-9.84V3.904c0-1.53-1.216-2.775-2.71-2.775H2.933zm22.634 25.276H2.929a2.88 2.88 0 0 1-2.044-.855A3.016 3.016 0 0 1 0 23.404v-19.5c0-1.655 1.316-3 2.933-3H33.43c1.619 0 2.936 1.345 2.936 3v9.422c.092 4.007-1.17 7.56-3.554 10-1.939 1.985-4.512 3.079-7.245 3.079z" fill="#FFF"/><path d="M35.802 3.904c0-1.338-1.067-2.436-2.372-2.436h-6.434c7.652 4.912.142 20.415-1.948 24.374h.516c5.787 0 10.403-5.082 10.236-12.515.002-3.142.002-6.281.002-9.423" fill="#FFF"/><path d="M25.235 25.73h.33c2.547 0 4.948-1.02 6.757-2.873 2.256-2.31 3.451-5.693 3.365-9.527.002-3.145.002-6.284.002-9.426 0-1.281-1.013-2.324-2.259-2.324h-6.067c3.05 2.184 3.865 6.373 2.422 12.459-1.16 4.894-3.505 9.692-4.55 11.69m.33.226h-.704l.088-.166c.992-1.88 3.429-6.793 4.617-11.803 1.466-6.181.58-10.362-2.631-12.424l-.324-.207h6.82c1.37 0 2.484 1.143 2.484 2.549 0 3.142 0 6.281-.002 9.423.087 3.893-1.13 7.334-3.43 9.688-1.852 1.896-4.31 2.94-6.918 2.94" fill="#FFF"/><path d="M28.31 1.92c5.825 5.47.024 18.5-2.517 23.468 2.37-.06 4.596-1.037 6.287-2.769 2.192-2.242 3.353-5.539 3.268-9.282l.003-9.433c0-1.095-.862-1.985-1.921-1.985h-5.12zm-2.746 24.374H24.3l.35-.663c1.654-3.134 9.533-19.012 2.102-23.783l-1.295-.832h7.973c1.556 0 2.823 1.295 2.823 2.888l-.002 9.423c.089 3.977-1.163 7.505-3.525 9.925-1.917 1.962-4.46 3.042-7.162 3.042z" fill="#FFF"/><g transform="translate(23.463 .213)"><mask id="fb" fill="#fff"><use xlink:href="#fa"/></mask><path d="M5.123 1.82C7.5 4.23 8.076 8.21 6.835 13.653c-1.032 4.534-3.112 9.024-4.317 11.402 2.267-.106 4.398-1.07 6.018-2.728 2.17-2.221 3.32-5.49 3.236-9.201l.003-9.436c0-1.033-.811-1.872-1.809-1.872H5.123zm-2.98 23.472l.086-.169c1.187-2.318 3.333-6.898 4.387-11.52C7.87 8.094 7.25 4.119 4.768 1.79l-.207-.196h5.405c1.122 0 2.034.942 2.034 2.098l-.002 9.433c.085 3.771-1.087 7.097-3.3 9.362-1.707 1.746-3.968 2.741-6.365 2.802l-.19.004zm-1.119.676h1.077c2.67 0 5.185-1.069 7.08-3.009 2.342-2.397 3.583-5.892 3.494-9.842l.002-9.426c0-1.53-1.216-2.775-2.71-2.775h-7.59l.973.624c7.512 4.823-.401 20.78-2.064 23.931l-.262.497zm1.077.226H.649l.437-.829c1.647-3.12 9.489-18.918 2.142-23.635L1.608.69h8.358c1.62 0 2.937 1.346 2.937 3l-.003 9.424c.09 4.01-1.173 7.563-3.557 10.003-1.939 1.984-4.51 3.077-7.242 3.077z" fill="#FFF" mask="url(#fb)"/></g><g transform="translate(23.463 25.503)"><mask id="fd" fill="#fff"><use xlink:href="#fc"/></mask><path d="M.594.351h.019-.02z" fill="#FFF" mask="url(#fd)"/></g><path d="M24.654 12.52c-.018-.14-.035-.28-.055-.419l-.011.004c.026.138.038.278.05.42.005-.002.01-.004.016-.004" fill="#FFF"/><path d="M24.545 12.666l-.02-.132a3.824 3.824 0 0 0-.048-.409l-.02-.107.225-.05.03.118c.02.139.036.28.053.42l.013.1-.1.024-.025-.107.024.108-.132.035z" fill="#FFF"/><path d="M14.915 19.082c-5.383 0-9.747-2.794-9.747-6.24 0-.142.018-.282.033-.422.056.014.457.115.54.133 2.628.585 3.5 1.198 3.64 1.306a1.308 1.308 0 0 0-.071.375.98.98 0 0 0 .979.987.7.7 0 0 0 .183-.02c.082.406.343.708.746.857a.932.932 0 0 0 .576.045c.07.186.24.417.61.566a.94.94 0 0 0 .385.084.95.95 0 0 0 .306-.054 1.152 1.152 0 0 0 1.902.372c.19.1.588.295.976.295a.612.612 0 0 0 .154-.02c.392-.044.58-.204.66-.32a.184.184 0 0 0 .045-.064 1.005 1.005 0 0 0 .945-.18c.213-.145.36-.364.375-.549v-.004a.904.904 0 0 0 .222.021c.224 0 .442-.071.653-.211.408-.264.477-.607.469-.838.073.015.138.028.217.028.214 0 .419-.062.613-.185a.894.894 0 0 0 .416-.695.882.882 0 0 0-.134-.557c.673-.293 2.217-.856 4.029-1.267a4.585 4.585 0 0 0-.039-.336l.004-.001c-.001-.008-.005-.017-.007-.025-.003-.02-.003-.04-.007-.058a23.894 23.894 0 0 0-4.256 1.387c-.964-.84-3.183-2.77-3.787-3.216-.336-.261-.575-.408-.774-.468a1.394 1.394 0 0 0-.397-.059c-.147 0-.32.03-.494.087-.384.124-.77.431-1.143.731l-.025.013c-.341.276-.706.56-.984.629-.112.023-.237.04-.358.04-.308 0-.582-.09-.681-.222-.013-.028-.002-.056.037-.115l.006-.001.852-.915c.661-.663 1.287-1.283 2.728-1.324h.064c.897 0 1.792.406 1.896.447a5.767 5.767 0 0 0 2.585.624c.901 0 1.828-.223 2.806-.669.003 0 .004 0 .006-.002.225.19.433.387.624.592.016.019.034.036.051.054a5.288 5.288 0 0 1 1.027 1.636c.094.245.17.495.217.75l.012-.002c.019.138.037.278.054.418l-.017.005c.009.105.025.21.025.318 0 3.445-4.364 6.239-9.747 6.239m-9.45-7.746c.03-.077.058-.153.092-.229a4.81 4.81 0 0 1 .282-.529c.049-.08.097-.162.152-.24a5.394 5.394 0 0 1 .493-.618 5.864 5.864 0 0 1 .49-.488c.082-.075.169-.148.257-.22.033-.027.063-.056.097-.083 0 0 .003 0 .004.002 1.236.505 2.74.896 3.216.926.127.008.27.03.408.03.317 0 .631-.09.936-.174.176-.053.381-.109.583-.146-.045.05-.11.11-.163.165l-.858.93c-.07.069-.22.25-.124.475a.685.685 0 0 0 .227.252c.21.134.578.233.918.233.132 0 .247-.021.357-.04.368-.08.742-.384 1.136-.704.32-.248.772-.576 1.124-.671.099-.026.22-.043.316-.043.027 0 .046 0 .072.004.228.03.45.106.853.407.702.527 3.827 3.265 3.861 3.284 0 0 .199.177.191.466a.524.524 0 0 1-.251.397.738.738 0 0 1-.41.132c-.216 0-.354-.098-.367-.106-.015-.009-1.08-.987-1.475-1.317-.056-.051-.129-.099-.185-.099-.035 0-.056.013-.082.039-.054.073.013.179.09.248l1.25 1.254s.15.144.162.339c.018.212-.083.384-.293.518a.754.754 0 0 1-.444.143.642.642 0 0 1-.358-.11l-.18-.173c-.32-.32-.668-.663-.911-.863-.067-.044-.134-.089-.194-.089-.034 0-.054.004-.075.033-.026.031-.046.085.025.174a.687.687 0 0 0 .063.073l.905 1.033c.007.003.186.222.027.429l-.04.045a.415.415 0 0 1-.083.085c-.149.122-.358.138-.442.138a.5.5 0 0 1-.123-.014c-.097-.017-.152-.043-.181-.076l-.016-.012c-.045-.054-.506-.52-.886-.831-.045-.05-.115-.101-.181-.101-.03 0-.054.01-.08.04-.062.08.045.2.084.247l.779.859c0 .008-.015.021-.035.051-.03.035-.123.134-.405.162-.035.009-.067.009-.106.009-.295 0-.602-.138-.765-.225a1.15 1.15 0 0 0 .116-.494 1.16 1.16 0 0 0-1.16-1.165h-.04c.018-.292-.024-.845-.588-1.089a1.193 1.193 0 0 0-.485-.105c-.134 0-.246.021-.36.063a1.038 1.038 0 0 0-.567-.49 1.418 1.418 0 0 0-.408-.067c-.239 0-.464.062-.653.207a.998.998 0 0 0-.768-.367c-.255 0-.503.106-.692.287-.235-.185-1.197-.797-3.768-1.377-.127-.031-.385-.106-.564-.155l.012-.048c.047-.21.109-.418.188-.621m9.45-4.734c2.972 0 5.63.855 7.418 2.199-.857.366-1.68.56-2.476.56-.813 0-1.623-.2-2.413-.583-.038-.026-1.033-.49-2.059-.49h-.08c-1.21.03-1.886.456-2.344.835-.45.01-.832.115-1.173.218-.31.078-.576.153-.83.153-.112 0-.303-.008-.315-.008-.297-.007-1.777-.375-2.956-.82 1.783-1.265 4.357-2.064 7.228-2.064m-2.828 9.024l-.03-.03h-.027c-.031 0-.046.015-.076.04a.663.663 0 0 1-.604.096c-.597-.235-.548-.797-.521-.97a.08.08 0 0 0-.027-.074l-.047-.039-.041.039a.593.593 0 0 1-.425.18.622.622 0 0 1-.616-.621c0-.339.286-.617.616-.617.313 0 .58.23.613.542l.019.157.086-.138c.017-.015.266-.39.722-.39.096 0 .177.014.27.045.366.114.427.438.434.587.013.067.062.071.078.071.031 0 .045-.015.066-.037a.653.653 0 0 1 .455-.194c.11.005.229.026.343.08.584.253.315.99.315.997-.046.125-.05.181-.004.21l.021.012h.026c.03 0 .05-.013.103-.03a.942.942 0 0 1 .317-.076c.439.018.799.368.799.803a.784.784 0 0 1-.788.792.789.789 0 0 1-.793-.76c0-.033-.002-.133-.089-.133-.032 0-.054.026-.094.052-.093.084-.216.177-.393.177a.867.867 0 0 1-.255-.054c-.453-.18-.457-.496-.437-.62.004-.034.01-.066-.016-.097m2.823-9.421c-5.594 0-10.127 2.988-10.127 6.638 0 .096-.01.357-.01.388 0 3.88 3.967 7.019 10.137 7.019 6.21 0 10.138-3.139 10.138-7.015v-.392c0-3.65-4.544-6.638-10.138-6.638" fill="#FFF"/><path d="M7.93 8.636c1.15.414 2.459.731 2.715.737h.041c.064.003.189.009.271.009.212 0 .439-.058.7-.124l.103-.026c.34-.104.714-.207 1.159-.22.463-.379 1.152-.806 2.383-.837h.083c1.039 0 2.046.459 2.121.509a5.378 5.378 0 0 0 2.352.564c.715 0 1.45-.156 2.247-.475-1.834-1.31-4.44-2.058-7.19-2.058-2.633 0-5.164.698-6.985 1.92m3.027.973c-.085 0-.214-.006-.279-.009h-.036c-.331-.008-1.835-.389-2.994-.828l-.2-.075.174-.122C9.49 7.25 12.149 6.49 14.915 6.49c2.879 0 5.608.809 7.486 2.22l.156.117-.18.077c-.895.383-1.719.57-2.52.57-.823 0-1.652-.2-2.462-.594-.018-.01-.99-.48-2.01-.48h-.08c-1.186.03-1.837.449-2.271.81l-.031.025-.04.001c-.434.009-.803.11-1.142.214l-.109.027c-.276.07-.514.13-.755.13m4.39 7.097c.16.075.397.165.62.165.034 0 .058 0 .08-.006.11-.012.239-.037.317-.098l-.713-.789c-.055-.063-.208-.24-.089-.39a.207.207 0 0 1 .168-.085c.125 0 .227.097.264.138.365.297.833.766.89.835.016.013.04.033.13.049a.425.425 0 0 0 .103.011c.055 0 .244-.008.37-.112a.31.31 0 0 0 .069-.068l.04-.047c.101-.132-.021-.278-.022-.28l-.908-1.033s-.034-.035-.069-.082c-.124-.153-.057-.27-.023-.312.05-.066.11-.075.163-.075.09 0 .169.05.246.1.262.213.604.55.938.885l.179.17c.017.012.125.08.28.08.096 0 .24-.021.38-.122.18-.116.259-.252.245-.417-.009-.148-.128-.264-.129-.266l-1.25-1.257c-.143-.124-.185-.281-.102-.394.044-.046.093-.084.172-.084.108 0 .21.08.263.129.276.231.899.796 1.233 1.099.13.117.22.199.235.211a.554.554 0 0 0 .296.082.63.63 0 0 0 .349-.113.413.413 0 0 0 .202-.315c.004-.22-.154-.368-.155-.37.001.003.058.054-.57-.49-.967-.84-2.77-2.401-3.283-2.787-.379-.283-.587-.358-.8-.386-.024-.004-.035-.003-.057-.004-.086 0-.196.015-.289.04-.377.102-.909.515-1.083.651-.41.333-.79.64-1.181.725a2.091 2.091 0 0 1-.38.044c-.351 0-.745-.102-.98-.251a.779.779 0 0 1-.266-.299c-.09-.205-.037-.424.144-.604l.756-.819-.207.058-.037.01c-.3.084-.61.17-.93.17-.095 0-.19-.01-.281-.02l-.135-.011c-.458-.03-1.918-.397-3.192-.91l-.045.04a7.624 7.624 0 0 0-.254.216c-.075.069-.15.136-.222.207a6.673 6.673 0 0 0-.744.879 3.498 3.498 0 0 0-.12.19l-.028.045c-.05.082-.097.165-.143.25-.046.088-.092.177-.132.268-.027.06-.05.12-.074.182l-.016.04c-.07.18-.127.364-.17.55l.132.035c.124.036.248.07.324.088 2.419.547 3.41 1.113 3.735 1.342a1.119 1.119 0 0 1 1.482.077c.287-.178.665-.228 1.078-.1.25.092.45.25.586.463.264-.075.56-.049.839.074.55.239.656.739.659 1.081.666.04 1.196.597 1.196 1.276 0 .146-.029.297-.084.441m.62.39c-.304 0-.612-.129-.817-.237l-.097-.05.047-.098c.069-.145.106-.298.106-.446 0-.58-.47-1.053-1.048-1.053h-.159l.007-.119c.02-.335-.055-.776-.52-.978a1.011 1.011 0 0 0-.763-.04l-.092.033-.046-.086a.92.92 0 0 0-.506-.437 1.332 1.332 0 0 0-.37-.06.938.938 0 0 0-.584.184l-.086.065-.07-.083a.894.894 0 0 0-1.294-.07l-.072.068-.076-.06c-.152-.121-1.047-.752-3.722-1.357-.08-.02-.207-.055-.335-.09l-.335-.092.027-.14a4.5 4.5 0 0 1 .198-.652l.015-.04c.025-.065.05-.131.079-.195a5.394 5.394 0 0 1 .289-.541l.028-.046c.04-.068.081-.134.126-.2a5.641 5.641 0 0 1 .504-.63c.085-.095.174-.19.269-.283a7.902 7.902 0 0 1 .49-.436l.04-.035.057-.05.056-.044.065.032c1.244.508 2.736.889 3.177.916l.141.013c.085.009.173.018.26.018.289 0 .584-.082.87-.162l.035-.01c.164-.047.38-.107.595-.146l.328-.06-.225.247c-.032.034-.072.074-.112.114l-.055.054-.856.927c-.083.083-.165.208-.102.353a.559.559 0 0 0 .188.206c.195.123.548.212.854.212.114 0 .218-.018.318-.036.352-.076.712-.367 1.091-.674.333-.26.8-.6 1.177-.702a1.44 1.44 0 0 1 .347-.048c.032 0 .057.001.09.007.245.031.484.115.902.429.52.39 2.326 1.955 3.296 2.796.302.261.539.467.563.486a.755.755 0 0 1 .239.56.64.64 0 0 1-.305.49.84.84 0 0 1-.47.148.778.778 0 0 1-.428-.123c-.01-.007-.01-.007-.255-.228-.334-.302-.954-.865-1.23-1.097a.3.3 0 0 0-.113-.073c.012.004.034.046.082.089l1.254 1.259c.005.005.18.176.196.411.014.173-.034.422-.344.62a.86.86 0 0 1-.505.161.74.74 0 0 1-.424-.13l-.194-.183c-.332-.333-.67-.666-.903-.858-.029-.018-.069-.044-.097-.056l.012.016a.762.762 0 0 0 .055.065l.91 1.037c.04.042.097.137.114.246a.413.413 0 0 1-.083.327l-.042.05a.492.492 0 0 1-.105.102c-.172.144-.412.16-.507.16a.64.64 0 0 1-.152-.017.408.408 0 0 1-.235-.108 11.71 11.71 0 0 0-.89-.833.257.257 0 0 0-.1-.074c.012.008.029.039.077.095l.808.892v.082l-.062.089c-.1.11-.255.177-.48.198-.032.01-.072.01-.116.01m-5.678-3.352a.511.511 0 0 0-.504.504c0 .28.226.509.504.509a.481.481 0 0 0 .343-.146l.117-.111.088.07-.048-.384a.497.497 0 0 0-.5-.442m2.994 2.312c.033 0 .2.012.2.247.017.367.31.647.681.647a.672.672 0 0 0 .674-.677.702.702 0 0 0-.689-.692.8.8 0 0 0-.27.067l-.049.017a.25.25 0 0 1-.097.021h-.032l-.053-.016c-.156-.096-.098-.262-.066-.354l.002-.005c.049-.154.174-.669-.254-.854a.79.79 0 0 0-.303-.07.535.535 0 0 0-.37.162c-.028.027-.07.069-.147.069a.19.19 0 0 1-.188-.163c-.009-.158-.063-.409-.356-.501a.733.733 0 0 0-.236-.04c-.164 0-.404.058-.622.334l-.01.01-.217.35c.05.052.067.105.059.169-.035.24-.024.664.451.852a.547.547 0 0 0 .498-.086c.035-.027.075-.059.14-.059h.047l.098.07c.056.066.046.14.042.178-.018.11-.014.357.365.507.265.081.407.01.531-.102l.04-.03c.03-.02.07-.051.13-.051m.882 1.12a.906.906 0 0 1-.906-.866l-.01.006a.658.658 0 0 1-.453.195.958.958 0 0 1-.288-.06c-.5-.196-.533-.547-.52-.701a.761.761 0 0 1-.673.09c-.574-.226-.629-.714-.608-.994a.717.717 0 0 1-.417.137.733.733 0 0 1-.73-.735.74.74 0 0 1 .73-.73c.332 0 .615.217.701.52a.973.973 0 0 1 .74-.35c.102 0 .196.016.304.051.39.122.483.453.505.622.1-.099.268-.2.493-.2.145.006.275.036.39.09.475.205.507.717.378 1.127l-.023.066.025-.009a.987.987 0 0 1 .351-.08c.513.02.911.422.911.916a.873.873 0 0 1-.253.633.913.913 0 0 1-.647.272m1.21-7.538c.183 0 .32.031.428.062.212.065.455.21.812.488.418.31 1.676 1.377 3.738 3.173.756-.33 2.23-.91 4.104-1.34a4.264 4.264 0 0 0-.19-.626l-.034-.084a5.161 5.161 0 0 0-.972-1.515l-.05-.055a7.052 7.052 0 0 0-.56-.537c-.972.438-1.89.653-2.792.653a5.916 5.916 0 0 1-2.636-.636l-.03-.012c-.834-.35-1.448-.423-1.816-.423h-.065c-1.398.04-2.005.646-2.647 1.29l-.858.92c.1.088.451.198.9.103.246-.06.597-.332.935-.605l.045-.026c.34-.277.747-.605 1.16-.74.186-.059.369-.09.528-.09M5.3 12.56c-.01.095-.02.187-.02.281 0 3.378 4.323 6.127 9.636 6.127 5.312 0 9.635-2.749 9.635-6.127 0-.06-.006-.12-.012-.179-1.682.392-3.105.904-3.772 1.184a.954.954 0 0 1 .087.515c-.015.306-.18.585-.465.775a1.245 1.245 0 0 1-.675.205.797.797 0 0 1-.108-.007c-.023.25-.142.556-.516.798a1.279 1.279 0 0 1-.848.224.996.996 0 0 1-.402.518 1.108 1.108 0 0 1-.692.247c-.1 0-.189-.009-.269-.028a.254.254 0 0 1-.016.015c-.06.095-.262.297-.722.35-.04.012-.1.02-.166.02-.282 0-.604-.092-.958-.272a1.28 1.28 0 0 1-.853.33c-.485 0-.918-.272-1.131-.702a1.01 1.01 0 0 1-.672-.062c-.372-.15-.55-.379-.632-.542a1.05 1.05 0 0 1-.55-.068 1.237 1.237 0 0 1-.79-.833 1.097 1.097 0 0 1-1.19-1.096c.006-.103.017-.216.05-.332-.267-.183-1.2-.72-3.531-1.239-.058-.012-.275-.067-.418-.102m9.616 6.633c-5.437 0-9.86-2.85-9.86-6.352 0-.125.014-.248.026-.368l.022-.196.125.032c.056.015.455.115.537.133 2.628.584 3.53 1.207 3.685 1.327l.066.05-.029.079a1.195 1.195 0 0 0-.065.343c0 .473.389.866.867.866a.588.588 0 0 0 .155-.016l.115-.03.024.117c.074.37.308.638.675.774.185.072.35.077.51.04l.097-.022.035.093c.056.15.197.36.546.5a.781.781 0 0 0 .611.028l.102-.035.04.1c.157.391.543.654.964.654.28 0 .547-.114.754-.32l.06-.06.074.04c.343.185.663.282.923.282a.434.434 0 0 0 .122-.016c.39-.045.54-.192.598-.275l.033-.042.044-.092.1.028c.076.028.166.04.276.04.2 0 .378-.064.56-.204.188-.128.32-.315.332-.468l.011-.132.128.027a.781.781 0 0 0 .196.018c.2 0 .398-.065.591-.192.359-.232.425-.53.417-.74l-.004-.143.14.028c.236.05.506.011.747-.142a.773.773 0 0 0 .363-.605.769.769 0 0 0-.116-.492l-.068-.111.12-.052c.62-.27 2.14-.831 3.951-1.251a4.562 4.562 0 0 0-.023-.195 23.78 23.78 0 0 0-4.115 1.353l-.065.03-.054-.048c-2.09-1.82-3.361-2.9-3.78-3.21-.332-.258-.56-.396-.74-.451a1.437 1.437 0 0 0-.824.027c-.372.122-.761.435-1.106.712l-.045.026c-.353.289-.711.566-1.008.637a1.903 1.903 0 0 1-.385.045c-.346 0-.649-.106-.771-.268-.055-.114-.003-.193.032-.245l.04-.04.83-.892c.648-.648 1.316-1.317 2.808-1.359h.067c.39 0 1.035.077 1.904.44l.033.015c.831.41 1.684.616 2.545.616.884 0 1.787-.216 2.759-.658l.056-.015.069.03c.226.189.439.391.634.6l.051.055a5.384 5.384 0 0 1 1.009 1.57l.04.102c.089.228.154.444.2.655l.006-.001.03.118c.019.14.036.28.053.421l.013.1-.019.005v.007c.009.074.016.148.016.223 0 3.503-4.423 6.352-9.86 6.352m-.004-12.876c-5.522 0-10.015 2.927-10.015 6.524a10.086 10.086 0 0 1-.01.388c0 4.003 4.216 6.907 10.025 6.907s10.025-2.903 10.025-6.902v-.393c0-3.597-4.498-6.524-10.025-6.524m0 14.044c-5.94 0-10.251-2.998-10.251-7.132 0-.01 0-.053.003-.107.003-.091.008-.22.008-.28 0-3.722 4.594-6.75 10.24-6.75 5.652 0 10.25 3.028 10.25 6.75v.392c0 4.13-4.311 7.127-10.25 7.127" fill="#FFF"/></g></svg><svg width="62" height="28" viewBox="0 0 62 28" id="visa" y="84"><title>6C818AEF-D18D-4447-BF5B-09A0E0C8C4EC</title><path d="M30.92 4.468L26.806 23.69h-4.973l4.113-19.223h4.972zM51.84 16.88l2.618-7.219 1.507 7.22H51.84zm5.548 6.81h4.6L57.975 4.469h-4.246c-.953 0-1.759.555-2.116 1.41l-7.461 17.813h5.221l1.037-2.87h6.38l.599 2.87zm-12.978-6.275c.022-5.074-7.016-5.353-6.968-7.62.015-.69.672-1.422 2.11-1.61.713-.093 2.675-.165 4.903.86l.872-4.077c-1.196-.434-2.736-.852-4.651-.852-4.915 0-8.375 2.614-8.404 6.355-.03 2.768 2.47 4.311 4.354 5.232 1.937.942 2.588 1.545 2.58 2.387-.014 1.29-1.546 1.86-2.976 1.883-2.5.039-3.951-.675-5.108-1.215l-.901 4.212c1.162.535 3.306.998 5.531 1.022 5.223 0 8.641-2.581 8.658-6.577zM23.813 4.468L15.757 23.69H10.5L6.535 8.35c-.24-.946-.45-1.291-1.183-1.689C4.158 6.012 2.184 5.404.447 5.026l.12-.558h8.46c1.079 0 2.049.718 2.293 1.96l2.094 11.124L18.59 4.468h5.223z" fill="#FFF" fill-rule="evenodd"/></svg></svg>